<svg xmlns="http://www.w3.org/2000/svg" version="1.1" xmlns:xlink="http://www.w3.org/1999/xlink" xmlns:svgjs="http://svgjs.dev/svgjs"><svg version="1.1" xmlns="http://www.w3.org/2000/svg" xmlns:xlink="http://www.w3.org/1999/xlink" x="0px" y="0px" viewBox="0 0 6000 6000" enable-background="new 0 0 6000 6000" xml:space="preserve">

    <g id="XL">
        <g id="P8_5_">
            <path id="P8_Outline_4_" fill="none" stroke="#000000" stroke-miterlimit="10" d="M5309.622 5336.42L5305.624000000001 5335.42H5301.626000000001L5297.6280000000015 5334.42L5294.629000000002 5333.42H5290.631000000002L5286.6330000000025 5332.42L5282.635000000003 5331.42L5278.637000000003 5330.42L5274.639000000004 5329.42H5270.641000000004L5266.644000000004 5328.42L5262.646000000004 5327.42L5258.648000000005 5326.42L5254.650000000005 5325.42L5251.651000000005 5324.42L5246.654000000005 5323.42L5242.656000000005 5321.42L5238.658000000006 5320.42L5234.660000000006 5318.42L5230.662000000007 5317.42L5225.664000000007 5315.42L5221.666000000007 5314.42L5217.668000000008 5312.42L5213.670000000008 5310.42L5209.672000000009 5308.42L5205.674000000009 5306.42L5201.6760000000095 5304.42L5197.67800000001 5302.42L5193.68000000001 5300.42L5189.682000000011 5298.42L5185.684000000011 5295.42L5180.6860000000115 5292.42L5175.689000000011 5289.42L5171.691000000012 5286.42L5166.694000000011 5283.42L5162.696000000012 5280.42L5157.698000000012 5276.42L5153.700000000013 5273.42L5149.702000000013 5269.42L5145.704000000013 5266.42L5141.706000000014 5262.42L5137.708000000014 5258.42L5133.710000000015 5254.42L5130.712000000015 5250.42L5126.714000000015 5245.42L5123.716000000016 5241.42L5120.717000000016 5237.42L5117.718000000016 5233.42L5114.720000000017 5228.42L5111.722000000017 5224.42L5109.722000000017 5219.42L5106.724000000017 5215.42L5104.725000000018 5210.42L5102.726000000018 5205.42L5100.727000000018 5200.42L5098.728000000018 5196.42L5096.7290000000185 5191.42L5094.730000000019 5186.42L5093.730000000019 5181.42L5091.732000000019 5176.42L5089.732000000019 5170.42L5088.733000000019 5164.42L5087.7340000000195 5158.42L5085.7340000000195 5152.42L5084.73500000002 5147.42L5083.73600000002 5141.42L5082.73600000002 5135.42L5081.73600000002 5129.42V5123.42L5080.73700000002 5117.42L5079.73800000002 5111.42V5105.42L5078.73800000002 5099.42V5093.42V5087.42L5077.73800000002 5075.42L5076.7390000000205 5064.42V5053.42L5075.740000000021 5042.42V5030.42L5074.740000000021 5019.42V5008.42V4996.42L5073.740000000021 4985.42V4974.42V4962.42V4951.42V4940.42V4929.42V4917.42L5072.741000000021 4907.42V4897.42V4886.42V4876.42V4866.42V4855.42V4845.42V4834.42V4824.42V4814.42L5073.740000000021 4803.42V4793.42V4783.42V4772.42V4762.42V4749.42V4736.42V4723.42V4709.42V4696.42V4683.42V4670.42V4657.42V4644.42V4631.42V4618.42V4604.42V4591.42V4578.42V4542.42L4937.807000000021 4575.42L4936.808000000021 4606.42V4613.42V4620.42V4627.42L4935.808000000021 4634.42V4641.42V4649.42V4656.42V4663.42L4934.808000000021 4670.42V4677.42V4684.42V4691.42L4933.809000000021 4698.42V4705.42V4717.42L4932.810000000021 4729.42V4741.42L4931.810000000021 4753.42V4765.42L4930.810000000021 4777.42V4789.42L4929.8110000000215 4801.42V4813.42L4928.812000000022 4825.42V4837.42L4927.812000000022 4849.42L4926.812000000022 4861.42V4873.42L4925.813000000022 4885.42V4896.42L4924.814000000022 4907.42V4918.42L4923.814000000022 4929.42V4940.42L4922.814000000022 4950.42L4921.815000000022 4961.42V4972.42L4920.8160000000225 4983.42V4994.42L4919.8160000000225 5005.42V5016.42L4918.8160000000225 5027.42V5038.42L4917.817000000023 5049.42V5058.42V5067.42L4916.818000000023 5076.42V5085.42L4915.818000000023 5094.42V5104.42L4914.818000000023 5113.42L4913.819000000023 5122.42V5131.42L4912.820000000023 5140.42L4910.820000000023 5150.42L4909.821000000024 5159.42L4908.822000000024 5168.42L4906.822000000024 5177.42L4904.824000000024 5187.42L4902.824000000024 5195.42L4900.826000000025 5204.42L4898.826000000025 5212.42L4895.828000000025 5221.42L4893.829000000025 5229.42L4890.831000000026 5237.42L4886.833000000026 5245.42L4883.834000000026 5253.42L4879.836000000027 5261.42L4874.839000000026 5268.42L4870.841000000027 5275.42L4865.844000000026 5282.42L4859.846000000027 5288.42L4854.8490000000265 5294.42L4848.852000000026 5300.42L4826.863000000027 5294.42L4825.864000000027 5297.42L4824.864000000027 5301.42L4823.864000000027 5305.42L4822.865000000027 5308.42L4820.866000000027 5312.42L4819.866000000027 5316.42L4818.8670000000275 5319.42L4817.868000000028 5323.42L4816.868000000028 5326.42L4815.868000000028 5330.42L4814.869000000028 5333.42L4812.870000000028 5337.42L4811.870000000028 5340.42L4810.871000000028 5344.42L4809.8720000000285 5347.42L4807.8720000000285 5350.42L4806.873000000029 5353.42L4804.874000000029 5357.42L4803.874000000029 5360.42L4801.876000000029 5363.42L4800.876000000029 5366.42L4798.8770000000295 5369.42L4796.87800000003 5372.42L4794.87900000003 5375.42L4793.88000000003 5378.42L4791.88000000003 5381.42L4789.8820000000305 5384.42L4787.8820000000305 5387.42L4785.884000000031 5390.42L4783.884000000031 5393.42L4781.886000000031 5396.42L4779.886000000031 5398.42L4776.888000000032 5401.42L4774.889000000032 5404.42L4772.890000000032 5406.42L4769.892000000033 5409.42L4767.892000000033 5411.42L4764.894000000033 5414.42L4762.895000000033 5416.42L4759.897000000034 5419.42L4757.898000000034 5421.42L4754.899000000034 5423.42L4752.900000000034 5426.42L4749.902000000035 5428.42L4746.903000000035 5430.42L4743.905000000035 5432.42L4740.906000000035 5434.42L4737.908000000036 5436.42L4734.910000000036 5438.42L4731.911000000036 5440.42L4728.912000000037 5442.42L4725.914000000037 5444.42L4722.9160000000375 5445.42L4719.917000000038 5447.42L4716.918000000038 5449.42L4712.920000000038 5451.42L4709.922000000039 5453.42L4706.924000000039 5455.42L4702.9260000000395 5457.42L4687.933000000039 5465.42L4685.934000000039 5552.42L5311.625000000039 5359.42L5309.622 5336.42L5309.622 5336.42Z "></path>
            <path id="Base_49_" fill="#1E1E29" d="M5309.622 5336.42L5305.624000000001 5335.42H5301.626000000001L5297.6280000000015 5334.42L5294.629000000002 5333.42H5290.631000000002L5286.6330000000025 5332.42L5282.635000000003 5331.42L5278.637000000003 5330.42L5274.639000000004 5329.42H5270.641000000004L5266.644000000004 5328.42L5262.646000000004 5327.42L5258.648000000005 5326.42L5254.650000000005 5325.42L5251.651000000005 5324.42L5246.654000000005 5323.42L5242.656000000005 5321.42L5238.658000000006 5320.42L5234.660000000006 5318.42L5230.662000000007 5317.42L5225.664000000007 5315.42L5221.666000000007 5314.42L5217.668000000008 5312.42L5213.670000000008 5310.42L5209.672000000009 5308.42L5205.674000000009 5306.42L5201.6760000000095 5304.42L5197.67800000001 5302.42L5193.68000000001 5300.42L5189.682000000011 5298.42L5185.684000000011 5295.42L5180.6860000000115 5292.42L5175.689000000011 5289.42L5171.691000000012 5286.42L5166.694000000011 5283.42L5162.696000000012 5280.42L5157.698000000012 5276.42L5153.700000000013 5273.42L5149.702000000013 5269.42L5145.704000000013 5266.42L5141.706000000014 5262.42L5137.708000000014 5258.42L5133.710000000015 5254.42L5130.712000000015 5250.42L5126.714000000015 5245.42L5123.716000000016 5241.42L5120.717000000016 5237.42L5117.718000000016 5233.42L5114.720000000017 5228.42L5111.722000000017 5224.42L5109.722000000017 5219.42L5106.724000000017 5215.42L5104.725000000018 5210.42L5102.726000000018 5205.42L5100.727000000018 5200.42L5098.728000000018 5196.42L5096.7290000000185 5191.42L5094.730000000019 5186.42L5093.730000000019 5181.42L5091.732000000019 5176.42L5089.732000000019 5170.42L5088.733000000019 5164.42L5087.7340000000195 5158.42L5085.7340000000195 5152.42L5084.73500000002 5147.42L5083.73600000002 5141.42L5082.73600000002 5135.42L5081.73600000002 5129.42V5123.42L5080.73700000002 5117.42L5079.73800000002 5111.42V5105.42L5078.73800000002 5099.42V5093.42V5087.42L5077.73800000002 5075.42L5076.7390000000205 5064.42V5053.42L5075.740000000021 5042.42V5030.42L5074.740000000021 5019.42V5008.42V4996.42L5073.740000000021 4985.42V4974.42V4962.42V4951.42V4940.42V4929.42V4917.42L5072.741000000021 4907.42V4897.42V4886.42V4876.42V4866.42V4855.42V4845.42V4834.42V4824.42V4814.42L5073.740000000021 4803.42V4793.42V4783.42V4772.42V4762.42V4749.42V4736.42V4723.42V4709.42V4696.42V4683.42V4670.42V4657.42V4644.42V4631.42V4618.42V4604.42V4591.42V4578.42V4542.42L4937.807000000021 4575.42L4936.808000000021 4606.42V4613.42V4620.42V4627.42L4935.808000000021 4634.42V4641.42V4649.42V4656.42V4663.42L4934.808000000021 4670.42V4677.42V4684.42V4691.42L4933.809000000021 4698.42V4705.42V4717.42L4932.810000000021 4729.42V4741.42L4931.810000000021 4753.42V4765.42L4930.810000000021 4777.42V4789.42L4929.8110000000215 4801.42V4813.42L4928.812000000022 4825.42V4837.42L4927.812000000022 4849.42L4926.812000000022 4861.42V4873.42L4925.813000000022 4885.42V4896.42L4924.814000000022 4907.42V4918.42L4923.814000000022 4929.42V4940.42L4922.814000000022 4950.42L4921.815000000022 4961.42V4972.42L4920.8160000000225 4983.42V4994.42L4919.8160000000225 5005.42V5016.42L4918.8160000000225 5027.42V5038.42L4917.817000000023 5049.42V5058.42V5067.42L4916.818000000023 5076.42V5085.42L4915.818000000023 5094.42V5104.42L4914.818000000023 5113.42L4913.819000000023 5122.42V5131.42L4912.820000000023 5140.42L4910.820000000023 5150.42L4909.821000000024 5159.42L4908.822000000024 5168.42L4906.822000000024 5177.42L4904.824000000024 5187.42L4902.824000000024 5195.42L4900.826000000025 5204.42L4898.826000000025 5212.42L4895.828000000025 5221.42L4893.829000000025 5229.42L4890.831000000026 5237.42L4886.833000000026 5245.42L4883.834000000026 5253.42L4879.836000000027 5261.42L4874.839000000026 5268.42L4870.841000000027 5275.42L4865.844000000026 5282.42L4859.846000000027 5288.42L4854.8490000000265 5294.42L4848.852000000026 5300.42L4826.863000000027 5294.42L4825.864000000027 5297.42L4824.864000000027 5301.42L4823.864000000027 5305.42L4822.865000000027 5308.42L4820.866000000027 5312.42L4819.866000000027 5316.42L4818.8670000000275 5319.42L4817.868000000028 5323.42L4816.868000000028 5326.42L4815.868000000028 5330.42L4814.869000000028 5333.42L4812.870000000028 5337.42L4811.870000000028 5340.42L4810.871000000028 5344.42L4809.8720000000285 5347.42L4807.8720000000285 5350.42L4806.873000000029 5353.42L4804.874000000029 5357.42L4803.874000000029 5360.42L4801.876000000029 5363.42L4800.876000000029 5366.42L4798.8770000000295 5369.42L4796.87800000003 5372.42L4794.87900000003 5375.42L4793.88000000003 5378.42L4791.88000000003 5381.42L4789.8820000000305 5384.42L4787.8820000000305 5387.42L4785.884000000031 5390.42L4783.884000000031 5393.42L4781.886000000031 5396.42L4779.886000000031 5398.42L4776.888000000032 5401.42L4774.889000000032 5404.42L4772.890000000032 5406.42L4769.892000000033 5409.42L4767.892000000033 5411.42L4764.894000000033 5414.42L4762.895000000033 5416.42L4759.897000000034 5419.42L4757.898000000034 5421.42L4754.899000000034 5423.42L4752.900000000034 5426.42L4749.902000000035 5428.42L4746.903000000035 5430.42L4743.905000000035 5432.42L4740.906000000035 5434.42L4737.908000000036 5436.42L4734.910000000036 5438.42L4731.911000000036 5440.42L4728.912000000037 5442.42L4725.914000000037 5444.42L4722.9160000000375 5445.42L4719.917000000038 5447.42L4716.918000000038 5449.42L4712.920000000038 5451.42L4709.922000000039 5453.42L4706.924000000039 5455.42L4702.9260000000395 5457.42L4687.933000000039 5465.42L4685.934000000039 5552.42L5311.625000000039 5359.42L5309.622 5336.42L5309.622 5336.42Z "></path>
            <g>
                <text transform="matrix(0.7257 -0.2285 0.3004 0.9538 5258.6953 5362.7295)" x="8.588169361644304" y="12.541829208571471" svgjs:data="{&quot;leading&quot;:&quot;1.3&quot;}">
                    <tspan x="0" y="0" fill="#E74810" font-family="'ArialMT'" font-size="5px">Code:BR 4001, Size:X
                    </tspan>
                    <tspan x="50.029" y="0" fill="#E74810" font-family="'ArialMT'" font-size="5px">L</tspan>
                </text>
            </g>
        </g>
    </g>

</svg><svg width="2" height="0" style="opacity: 0; position: absolute; left: -100%; top: -100%; overflow: hidden;" focusable="false" aria-hidden="true"><path d="M5299.622 5326.42L5295.624000000001 5325.42H5291.626000000001L5287.6280000000015 5324.42L5284.629000000002 5323.42H5280.631000000002L5276.6330000000025 5322.42L5272.635000000003 5321.42L5268.637000000003 5320.42L5264.639000000004 5319.42H5260.641000000004L5256.644000000004 5318.42L5252.646000000004 5317.42L5248.648000000005 5316.42L5244.650000000005 5315.42L5241.651000000005 5314.42L5236.654000000005 5313.42L5232.656000000005 5311.42L5228.658000000006 5310.42L5224.660000000006 5308.42L5220.662000000007 5307.42L5215.664000000007 5305.42L5211.666000000007 5304.42L5207.668000000008 5302.42L5203.670000000008 5300.42L5199.672000000009 5298.42L5195.674000000009 5296.42L5191.6760000000095 5294.42L5187.67800000001 5292.42L5183.68000000001 5290.42L5179.682000000011 5288.42L5175.684000000011 5285.42L5170.6860000000115 5282.42L5165.689000000011 5279.42L5161.691000000012 5276.42L5156.694000000011 5273.42L5152.696000000012 5270.42L5147.698000000012 5266.42L5143.700000000013 5263.42L5139.702000000013 5259.42L5135.704000000013 5256.42L5131.706000000014 5252.42L5127.708000000014 5248.42L5123.710000000015 5244.42L5120.712000000015 5240.42L5116.714000000015 5235.42L5113.716000000016 5231.42L5110.717000000016 5227.42L5107.718000000016 5223.42L5104.720000000017 5218.42L5101.722000000017 5214.42L5099.722000000017 5209.42L5096.724000000017 5205.42L5094.725000000018 5200.42L5092.726000000018 5195.42L5090.727000000018 5190.42L5088.728000000018 5186.42L5086.7290000000185 5181.42L5084.730000000019 5176.42L5083.730000000019 5171.42L5081.732000000019 5166.42L5079.732000000019 5160.42L5078.733000000019 5154.42L5077.7340000000195 5148.42L5075.7340000000195 5142.42L5074.73500000002 5137.42L5073.73600000002 5131.42L5072.73600000002 5125.42L5071.73600000002 5119.42V5113.42L5070.73700000002 5107.42L5069.73800000002 5101.42V5095.42L5068.73800000002 5089.42V5083.42V5077.42L5067.73800000002 5065.42L5066.7390000000205 5054.42V5043.42L5065.740000000021 5032.42V5020.42L5064.740000000021 5009.42V4998.42V4986.42L5063.740000000021 4975.42V4964.42V4952.42V4941.42V4930.42V4919.42V4907.42L5062.741000000021 4897.42V4887.42V4876.42V4866.42V4856.42V4845.42V4835.42V4824.42V4814.42V4804.42L5063.740000000021 4793.42V4783.42V4773.42V4762.42V4752.42V4739.42V4726.42V4713.42V4699.42V4686.42V4673.42V4660.42V4647.42V4634.42V4621.42V4608.42V4594.42V4581.42V4568.42V4532.42L4927.807000000021 4565.42L4926.808000000021 4596.42V4603.42V4610.42V4617.42L4925.808000000021 4624.42V4631.42V4639.42V4646.42V4653.42L4924.808000000021 4660.42V4667.42V4674.42V4681.42L4923.809000000021 4688.42V4695.42V4707.42L4922.810000000021 4719.42V4731.42L4921.810000000021 4743.42V4755.42L4920.810000000021 4767.42V4779.42L4919.8110000000215 4791.42V4803.42L4918.812000000022 4815.42V4827.42L4917.812000000022 4839.42L4916.812000000022 4851.42V4863.42L4915.813000000022 4875.42V4886.42L4914.814000000022 4897.42V4908.42L4913.814000000022 4919.42V4930.42L4912.814000000022 4940.42L4911.815000000022 4951.42V4962.42L4910.8160000000225 4973.42V4984.42L4909.8160000000225 4995.42V5006.42L4908.8160000000225 5017.42V5028.42L4907.817000000023 5039.42V5048.42V5057.42L4906.818000000023 5066.42V5075.42L4905.818000000023 5084.42V5094.42L4904.818000000023 5103.42L4903.819000000023 5112.42V5121.42L4902.820000000023 5130.42L4900.820000000023 5140.42L4899.821000000024 5149.42L4898.822000000024 5158.42L4896.822000000024 5167.42L4894.824000000024 5177.42L4892.824000000024 5185.42L4890.826000000025 5194.42L4888.826000000025 5202.42L4885.828000000025 5211.42L4883.829000000025 5219.42L4880.831000000026 5227.42L4876.833000000026 5235.42L4873.834000000026 5243.42L4869.836000000027 5251.42L4864.839000000026 5258.42L4860.841000000027 5265.42L4855.844000000026 5272.42L4849.846000000027 5278.42L4844.8490000000265 5284.42L4838.852000000026 5290.42L4816.863000000027 5284.42L4815.864000000027 5287.42L4814.864000000027 5291.42L4813.864000000027 5295.42L4812.865000000027 5298.42L4810.866000000027 5302.42L4809.866000000027 5306.42L4808.8670000000275 5309.42L4807.868000000028 5313.42L4806.868000000028 5316.42L4805.868000000028 5320.42L4804.869000000028 5323.42L4802.870000000028 5327.42L4801.870000000028 5330.42L4800.871000000028 5334.42L4799.8720000000285 5337.42L4797.8720000000285 5340.42L4796.873000000029 5343.42L4794.874000000029 5347.42L4793.874000000029 5350.42L4791.876000000029 5353.42L4790.876000000029 5356.42L4788.8770000000295 5359.42L4786.87800000003 5362.42L4784.87900000003 5365.42L4783.88000000003 5368.42L4781.88000000003 5371.42L4779.8820000000305 5374.42L4777.8820000000305 5377.42L4775.884000000031 5380.42L4773.884000000031 5383.42L4771.886000000031 5386.42L4769.886000000031 5388.42L4766.888000000032 5391.42L4764.889000000032 5394.42L4762.890000000032 5396.42L4759.892000000033 5399.42L4757.892000000033 5401.42L4754.894000000033 5404.42L4752.895000000033 5406.42L4749.897000000034 5409.42L4747.898000000034 5411.42L4744.899000000034 5413.42L4742.900000000034 5416.42L4739.902000000035 5418.42L4736.903000000035 5420.42L4733.905000000035 5422.42L4730.906000000035 5424.42L4727.908000000036 5426.42L4724.910000000036 5428.42L4721.911000000036 5430.42L4718.912000000037 5432.42L4715.914000000037 5434.42L4712.9160000000375 5435.42L4709.917000000038 5437.42L4706.918000000038 5439.42L4702.920000000038 5441.42L4699.922000000039 5443.42L4696.924000000039 5445.42L4692.9260000000395 5447.42L4677.933000000039 5455.42L4675.934000000039 5542.42L5301.625000000039 5349.42L5299.622 5326.42L5299.622 5326.42Z "></path></svg></svg>