<svg xmlns="http://www.w3.org/2000/svg" version="1.1" xmlns:xlink="http://www.w3.org/1999/xlink" xmlns:svgjs="http://svgjs.dev/svgjs" width="4000" height="4000" viewBox="0 0 4000 4000"><g id="SvgjsG1002">
			<path id="SvgjsPath1001" fill="none" stroke="#000000" stroke-miterlimit="10" d="M5399.622 5426.42L5395.624000000001 5425.42H5391.626000000001L5387.6280000000015 5424.42L5384.629000000002 5423.42H5380.631000000002L5376.6330000000025 5422.42L5372.635000000003 5421.42L5368.637000000003 5420.42L5364.639000000004 5419.42H5360.641000000004L5356.644000000004 5418.42L5352.646000000004 5417.42L5348.648000000005 5416.42L5344.650000000005 5415.42L5341.651000000005 5414.42L5336.654000000005 5413.42L5332.656000000005 5411.42L5328.658000000006 5410.42L5324.660000000006 5408.42L5320.662000000007 5407.42L5315.664000000007 5405.42L5311.666000000007 5404.42L5307.668000000008 5402.42L5303.670000000008 5400.42L5299.672000000009 5398.42L5295.674000000009 5396.42L5291.6760000000095 5394.42L5287.67800000001 5392.42L5283.68000000001 5390.42L5279.682000000011 5388.42L5275.684000000011 5385.42L5270.6860000000115 5382.42L5265.689000000011 5379.42L5261.691000000012 5376.42L5256.694000000011 5373.42L5252.696000000012 5370.42L5247.698000000012 5366.42L5243.700000000013 5363.42L5239.702000000013 5359.42L5235.704000000013 5356.42L5231.706000000014 5352.42L5227.708000000014 5348.42L5223.710000000015 5344.42L5220.712000000015 5340.42L5216.714000000015 5335.42L5213.716000000016 5331.42L5210.717000000016 5327.42L5207.718000000016 5323.42L5204.720000000017 5318.42L5201.722000000017 5314.42L5199.722000000017 5309.42L5196.724000000017 5305.42L5194.725000000018 5300.42L5192.726000000018 5295.42L5190.727000000018 5290.42L5188.728000000018 5286.42L5186.7290000000185 5281.42L5184.730000000019 5276.42L5183.730000000019 5271.42L5181.732000000019 5266.42L5179.732000000019 5260.42L5178.733000000019 5254.42L5177.7340000000195 5248.42L5175.7340000000195 5242.42L5174.73500000002 5237.42L5173.73600000002 5231.42L5172.73600000002 5225.42L5171.73600000002 5219.42V5213.42L5170.73700000002 5207.42L5169.73800000002 5201.42V5195.42L5168.73800000002 5189.42V5183.42V5177.42L5167.73800000002 5165.42L5166.7390000000205 5154.42V5143.42L5165.740000000021 5132.42V5120.42L5164.740000000021 5109.42V5098.42V5086.42L5163.740000000021 5075.42V5064.42V5052.42V5041.42V5030.42V5019.42V5007.42L5162.741000000021 4997.42V4987.42V4976.42V4966.42V4956.42V4945.42V4935.42V4924.42V4914.42V4904.42L5163.740000000021 4893.42V4883.42V4873.42V4862.42V4852.42V4839.42V4826.42V4813.42V4799.42V4786.42V4773.42V4760.42V4747.42V4734.42V4721.42V4708.42V4694.42V4681.42V4668.42V4632.42L5027.807000000021 4665.42L5026.808000000021 4696.42V4703.42V4710.42V4717.42L5025.808000000021 4724.42V4731.42V4739.42V4746.42V4753.42L5024.808000000021 4760.42V4767.42V4774.42V4781.42L5023.809000000021 4788.42V4795.42V4807.42L5022.810000000021 4819.42V4831.42L5021.810000000021 4843.42V4855.42L5020.810000000021 4867.42V4879.42L5019.8110000000215 4891.42V4903.42L5018.812000000022 4915.42V4927.42L5017.812000000022 4939.42L5016.812000000022 4951.42V4963.42L5015.813000000022 4975.42V4986.42L5014.814000000022 4997.42V5008.42L5013.814000000022 5019.42V5030.42L5012.814000000022 5040.42L5011.815000000022 5051.42V5062.42L5010.8160000000225 5073.42V5084.42L5009.8160000000225 5095.42V5106.42L5008.8160000000225 5117.42V5128.42L5007.817000000023 5139.42V5148.42V5157.42L5006.818000000023 5166.42V5175.42L5005.818000000023 5184.42V5194.42L5004.818000000023 5203.42L5003.819000000023 5212.42V5221.42L5002.820000000023 5230.42L5000.820000000023 5240.42L4999.821000000024 5249.42L4998.822000000024 5258.42L4996.822000000024 5267.42L4994.824000000024 5277.42L4992.824000000024 5285.42L4990.826000000025 5294.42L4988.826000000025 5302.42L4985.828000000025 5311.42L4983.829000000025 5319.42L4980.831000000026 5327.42L4976.833000000026 5335.42L4973.834000000026 5343.42L4969.836000000027 5351.42L4964.839000000026 5358.42L4960.841000000027 5365.42L4955.844000000026 5372.42L4949.846000000027 5378.42L4944.8490000000265 5384.42L4938.852000000026 5390.42L4916.863000000027 5384.42L4915.864000000027 5387.42L4914.864000000027 5391.42L4913.864000000027 5395.42L4912.865000000027 5398.42L4910.866000000027 5402.42L4909.866000000027 5406.42L4908.8670000000275 5409.42L4907.868000000028 5413.42L4906.868000000028 5416.42L4905.868000000028 5420.42L4904.869000000028 5423.42L4902.870000000028 5427.42L4901.870000000028 5430.42L4900.871000000028 5434.42L4899.8720000000285 5437.42L4897.8720000000285 5440.42L4896.873000000029 5443.42L4894.874000000029 5447.42L4893.874000000029 5450.42L4891.876000000029 5453.42L4890.876000000029 5456.42L4888.8770000000295 5459.42L4886.87800000003 5462.42L4884.87900000003 5465.42L4883.88000000003 5468.42L4881.88000000003 5471.42L4879.8820000000305 5474.42L4877.8820000000305 5477.42L4875.884000000031 5480.42L4873.884000000031 5483.42L4871.886000000031 5486.42L4869.886000000031 5488.42L4866.888000000032 5491.42L4864.889000000032 5494.42L4862.890000000032 5496.42L4859.892000000033 5499.42L4857.892000000033 5501.42L4854.894000000033 5504.42L4852.895000000033 5506.42L4849.897000000034 5509.42L4847.898000000034 5511.42L4844.899000000034 5513.42L4842.900000000034 5516.42L4839.902000000035 5518.42L4836.903000000035 5520.42L4833.905000000035 5522.42L4830.906000000035 5524.42L4827.908000000036 5526.42L4824.910000000036 5528.42L4821.911000000036 5530.42L4818.912000000037 5532.42L4815.914000000037 5534.42L4812.9160000000375 5535.42L4809.917000000038 5537.42L4806.918000000038 5539.42L4802.920000000038 5541.42L4799.922000000039 5543.42L4796.924000000039 5545.42L4792.9260000000395 5547.42L4777.933000000039 5555.42L4775.934000000039 5642.42L5401.625000000039 5449.42L5399.622 5426.42L5399.622 5426.42Z "></path>
			<path id="SvgjsPath1000" fill="#1E1E29" d="M5399.622 5426.42L5395.624000000001 5425.42H5391.626000000001L5387.6280000000015 5424.42L5384.629000000002 5423.42H5380.631000000002L5376.6330000000025 5422.42L5372.635000000003 5421.42L5368.637000000003 5420.42L5364.639000000004 5419.42H5360.641000000004L5356.644000000004 5418.42L5352.646000000004 5417.42L5348.648000000005 5416.42L5344.650000000005 5415.42L5341.651000000005 5414.42L5336.654000000005 5413.42L5332.656000000005 5411.42L5328.658000000006 5410.42L5324.660000000006 5408.42L5320.662000000007 5407.42L5315.664000000007 5405.42L5311.666000000007 5404.42L5307.668000000008 5402.42L5303.670000000008 5400.42L5299.672000000009 5398.42L5295.674000000009 5396.42L5291.6760000000095 5394.42L5287.67800000001 5392.42L5283.68000000001 5390.42L5279.682000000011 5388.42L5275.684000000011 5385.42L5270.6860000000115 5382.42L5265.689000000011 5379.42L5261.691000000012 5376.42L5256.694000000011 5373.42L5252.696000000012 5370.42L5247.698000000012 5366.42L5243.700000000013 5363.42L5239.702000000013 5359.42L5235.704000000013 5356.42L5231.706000000014 5352.42L5227.708000000014 5348.42L5223.710000000015 5344.42L5220.712000000015 5340.42L5216.714000000015 5335.42L5213.716000000016 5331.42L5210.717000000016 5327.42L5207.718000000016 5323.42L5204.720000000017 5318.42L5201.722000000017 5314.42L5199.722000000017 5309.42L5196.724000000017 5305.42L5194.725000000018 5300.42L5192.726000000018 5295.42L5190.727000000018 5290.42L5188.728000000018 5286.42L5186.7290000000185 5281.42L5184.730000000019 5276.42L5183.730000000019 5271.42L5181.732000000019 5266.42L5179.732000000019 5260.42L5178.733000000019 5254.42L5177.7340000000195 5248.42L5175.7340000000195 5242.42L5174.73500000002 5237.42L5173.73600000002 5231.42L5172.73600000002 5225.42L5171.73600000002 5219.42V5213.42L5170.73700000002 5207.42L5169.73800000002 5201.42V5195.42L5168.73800000002 5189.42V5183.42V5177.42L5167.73800000002 5165.42L5166.7390000000205 5154.42V5143.42L5165.740000000021 5132.42V5120.42L5164.740000000021 5109.42V5098.42V5086.42L5163.740000000021 5075.42V5064.42V5052.42V5041.42V5030.42V5019.42V5007.42L5162.741000000021 4997.42V4987.42V4976.42V4966.42V4956.42V4945.42V4935.42V4924.42V4914.42V4904.42L5163.740000000021 4893.42V4883.42V4873.42V4862.42V4852.42V4839.42V4826.42V4813.42V4799.42V4786.42V4773.42V4760.42V4747.42V4734.42V4721.42V4708.42V4694.42V4681.42V4668.42V4632.42L5027.807000000021 4665.42L5026.808000000021 4696.42V4703.42V4710.42V4717.42L5025.808000000021 4724.42V4731.42V4739.42V4746.42V4753.42L5024.808000000021 4760.42V4767.42V4774.42V4781.42L5023.809000000021 4788.42V4795.42V4807.42L5022.810000000021 4819.42V4831.42L5021.810000000021 4843.42V4855.42L5020.810000000021 4867.42V4879.42L5019.8110000000215 4891.42V4903.42L5018.812000000022 4915.42V4927.42L5017.812000000022 4939.42L5016.812000000022 4951.42V4963.42L5015.813000000022 4975.42V4986.42L5014.814000000022 4997.42V5008.42L5013.814000000022 5019.42V5030.42L5012.814000000022 5040.42L5011.815000000022 5051.42V5062.42L5010.8160000000225 5073.42V5084.42L5009.8160000000225 5095.42V5106.42L5008.8160000000225 5117.42V5128.42L5007.817000000023 5139.42V5148.42V5157.42L5006.818000000023 5166.42V5175.42L5005.818000000023 5184.42V5194.42L5004.818000000023 5203.42L5003.819000000023 5212.42V5221.42L5002.820000000023 5230.42L5000.820000000023 5240.42L4999.821000000024 5249.42L4998.822000000024 5258.42L4996.822000000024 5267.42L4994.824000000024 5277.42L4992.824000000024 5285.42L4990.826000000025 5294.42L4988.826000000025 5302.42L4985.828000000025 5311.42L4983.829000000025 5319.42L4980.831000000026 5327.42L4976.833000000026 5335.42L4973.834000000026 5343.42L4969.836000000027 5351.42L4964.839000000026 5358.42L4960.841000000027 5365.42L4955.844000000026 5372.42L4949.846000000027 5378.42L4944.8490000000265 5384.42L4938.852000000026 5390.42L4916.863000000027 5384.42L4915.864000000027 5387.42L4914.864000000027 5391.42L4913.864000000027 5395.42L4912.865000000027 5398.42L4910.866000000027 5402.42L4909.866000000027 5406.42L4908.8670000000275 5409.42L4907.868000000028 5413.42L4906.868000000028 5416.42L4905.868000000028 5420.42L4904.869000000028 5423.42L4902.870000000028 5427.42L4901.870000000028 5430.42L4900.871000000028 5434.42L4899.8720000000285 5437.42L4897.8720000000285 5440.42L4896.873000000029 5443.42L4894.874000000029 5447.42L4893.874000000029 5450.42L4891.876000000029 5453.42L4890.876000000029 5456.42L4888.8770000000295 5459.42L4886.87800000003 5462.42L4884.87900000003 5465.42L4883.88000000003 5468.42L4881.88000000003 5471.42L4879.8820000000305 5474.42L4877.8820000000305 5477.42L4875.884000000031 5480.42L4873.884000000031 5483.42L4871.886000000031 5486.42L4869.886000000031 5488.42L4866.888000000032 5491.42L4864.889000000032 5494.42L4862.890000000032 5496.42L4859.892000000033 5499.42L4857.892000000033 5501.42L4854.894000000033 5504.42L4852.895000000033 5506.42L4849.897000000034 5509.42L4847.898000000034 5511.42L4844.899000000034 5513.42L4842.900000000034 5516.42L4839.902000000035 5518.42L4836.903000000035 5520.42L4833.905000000035 5522.42L4830.906000000035 5524.42L4827.908000000036 5526.42L4824.910000000036 5528.42L4821.911000000036 5530.42L4818.912000000037 5532.42L4815.914000000037 5534.42L4812.9160000000375 5535.42L4809.917000000038 5537.42L4806.918000000038 5539.42L4802.920000000038 5541.42L4799.922000000039 5543.42L4796.924000000039 5545.42L4792.9260000000395 5547.42L4777.933000000039 5555.42L4775.934000000039 5642.42L5401.625000000039 5449.42L5399.622 5426.42L5399.622 5426.42Z "></path>
			<g>
				<text transform="matrix(0.7257 -0.2285 0.3004 0.9538 5258.6953 5362.7295)" x="85.88169361644032" y="125.41829208571653" svgjs:data="{&quot;leading&quot;:&quot;1.3&quot;}">
					<tspan x="0" y="0" fill="#E74810" font-family="'ArialMT'" font-size="5px">Code:BR 4001, Size:X
					</tspan>
					<tspan x="50.029" y="0" fill="#E74810" font-family="'ArialMT'" font-size="5px">L</tspan>
				</text>
			</g>
		</g></svg>