<svg xmlns="http://www.w3.org/2000/svg" version="1.1" xmlns:xlink="http://www.w3.org/1999/xlink"
	xmlns:svgjs="http://svgjs.dev/svgjs" width="2000" height="3000" viewBox="0 0 2000 3000">
	<g id="XL_P7_5_1">
		<polygon id="XL_C1_74__1" fill="#4C5B56"
			points="4403.562,5155.616 4417.42,5148.01 4420.55,5146.221 4423.679,5144.431 4428.15,5142.194 4431.279,5140.404 4434.409,5138.615 4437.985,5135.931 4441.115,5134.142 4445.586,5131.905 4448.714,5130.115 4452.292,5127.431 4455.868,5124.747 4458.998,5122.958 4462.574,5120.273 4466.151,5117.59 4468.833,5114.458 4472.41,5111.775 4475.987,5109.091 4478.669,5105.959 4482.247,5103.276 4484.929,5100.145 4488.505,5097.461 4491.188,5094.331 4493.871,5091.199 4496.553,5088.068 4499.236,5084.938 4501.919,5081.807 4505.048,5077.781 4507.73,5074.65 4510.414,5071.52 4512.202,5067.941 4515.333,5063.917 4517.121,5060.338 4519.803,5057.208 4521.592,5053.63 4523.828,5049.157 4525.616,5045.58 4527.405,5042.002 4529.193,5038.424 4530.982,5034.846 4533.218,5030.374 4535.006,5026.796 4536.795,5023.218 4537.69,5019.193 4539.479,5015.616 4541.267,5012.038 4542.161,5008.013 4543.95,5004.435 4544.844,5000.41 4545.739,4996.386 4547.528,4992.808 4548.423,4988.783 4549.317,4984.758 4551.105,4981.18 4552,4977.155 4552.895,4973.131 4553.79,4969.106 4555.578,4965.528 4556.025,4962.398 4556.919,4958.373 4534.122,4952.566 4533.228,4954.355 4531.439,4955.697 4529.651,4957.039 4527.863,4958.381 4526.074,4959.723 4524.286,4961.065 4522.945,4961.512 4521.157,4962.854 4519.368,4964.196 4517.58,4965.539 4514.897,4966.434 4513.109,4967.775 4511.768,4968.223 4509.086,4969.118 4507.297,4970.46 4504.616,4971.355 4502.827,4972.697 4500.145,4973.592 4497.909,4973.593 4495.227,4974.488 4493.439,4975.83 4490.756,4976.725 4488.074,4977.62 4485.838,4977.62 4483.157,4978.516 4480.474,4979.41 4478.239,4979.411 4475.556,4980.306 4473.322,4980.307 4470.639,4981.202 4467.957,4982.097 4464.38,4982.545 4460.804,4982.993 4458.122,4983.888 4454.545,4984.336 4450.968,4984.784 4447.393,4985.232 4444.71,4986.127 4441.133,4986.575 4437.557,4987.024 4434.429,4986.578 4430.852,4987.025 4428.169,4987.92 4424.594,4988.369 4421.464,4987.922 4420.123,4988.37 4417.887,4988.37 4416.994,4987.923 4415.653,4988.371 4414.758,4987.924 4413.417,4988.372 4411.182,4988.373 4410.288,4987.925 4408.946,4988.373 4407.605,4988.82 4406.712,4988.374 4404.476,4988.374 4403.135,4988.821 4402.242,4988.375 4400.9,4988.822 4400.005,4988.375 4397.771,4988.376 4396.43,4988.823 4395.535,4988.376 4394.194,4988.824 4392.854,4989.271 4391.065,4988.377 4389.724,4988.825 4388.831,4988.378 4387.489,4988.826 4385.253,4988.826 4384.36,4988.379 4383.019,4988.827 4382.124,4988.38 4380.783,4988.828 4377.653,4988.381 4374.078,4988.829 4370.054,4987.936 4366.479,4988.384 4363.349,4987.938 4360.22,4987.492 4357.09,4987.045 4353.961,4986.599 4350.386,4987.047 4347.256,4986.601 4343.233,4985.708 4340.103,4985.261 4336.974,4984.814 4333.846,4984.369 4330.716,4983.922 4327.586,4983.476 4325.799,4982.582 4322.669,4982.135 4320.434,4982.136 4317.752,4980.795 4315.517,4980.795 4312.835,4979.455 4310.6,4979.456 4307.917,4978.115 4305.683,4978.116 4303,4976.774 4300.765,4976.775 4298.083,4975.435 4296.295,4974.541 4293.166,4974.094 4291.378,4973.2 4289.59,4972.307 4287.802,4971.413 4285.119,4970.071 4283.332,4969.178 4281.543,4968.284 4279.756,4967.39 4277.967,4966.496 4275.286,4965.155 4273.945,4963.367 4272.157,4962.473 4270.815,4960.685 4269.028,4959.791 4267.687,4958.003 4265.899,4957.109 4243.545,4963.822 4245.333,4966.952 4245.78,4970.529 4247.121,4974.553 4248.461,4978.578 4248.908,4982.155 4250.248,4986.179 4252.037,4989.309 4253.377,4993.333 4253.823,4996.91 4255.164,5000.935 4256.505,5004.959 4258.292,5008.088 4259.633,5012.112 4260.974,5016.137 4263.208,5020.608 4264.997,5023.738 4266.337,5027.762 4268.124,5030.891 4269.465,5034.916 4271.7,5039.387 4273.488,5042.517 4276.17,5046.093 4277.51,5050.117 4280.192,5053.694 4281.979,5056.823 4284.661,5060.4 4286.896,5064.871 4288.684,5068.001 4291.365,5071.578 4294.047,5075.154 4297.176,5077.836 4299.858,5081.413 4302.54,5084.99 4305.222,5088.566 4308.351,5091.249 4311.032,5094.825 4314.161,5097.507 4317.289,5100.189 4319.971,5103.766 4323.1,5106.448 4326.229,5109.13 4329.358,5111.812 4333.381,5114.942 4336.957,5116.729 4340.086,5119.412 4343.215,5122.094 4346.791,5123.882 4350.814,5127.011 4354.391,5128.799 4357.52,5131.481 4361.096,5133.269 4364.672,5135.057 4368.248,5136.844 4371.377,5139.526 4374.953,5141.314 4378.529,5143.102 4382.105,5144.89 4385.681,5146.677 4389.257,5148.465 4403.562,5155.616">
		</polygon>
		<polygon id="XL_P7_Outline_5__1" fill="none" stroke="#000000" stroke-miterlimit="10"
			points="4403.562,5155.616 4417.42,5148.01 4420.55,5146.221 4423.679,5144.431 4428.15,5142.194 4431.279,5140.404 4434.409,5138.615 4437.985,5135.931 4441.115,5134.142 4445.586,5131.905 4448.714,5130.115 4452.292,5127.431 4455.868,5124.747 4458.998,5122.958 4462.574,5120.273 4466.151,5117.59 4468.833,5114.458 4472.41,5111.775 4475.987,5109.091 4478.669,5105.959 4482.247,5103.276 4484.929,5100.145 4488.505,5097.461 4491.188,5094.331 4493.871,5091.199 4496.553,5088.068 4499.236,5084.938 4501.919,5081.807 4505.048,5077.781 4507.73,5074.65 4510.414,5071.52 4512.202,5067.941 4515.333,5063.917 4517.121,5060.338 4519.803,5057.208 4521.592,5053.63 4523.828,5049.157 4525.616,5045.58 4527.405,5042.002 4529.193,5038.424 4530.982,5034.846 4533.218,5030.374 4535.006,5026.796 4536.795,5023.218 4537.69,5019.193 4539.479,5015.616 4541.267,5012.038 4542.161,5008.013 4543.95,5004.435 4544.844,5000.41 4545.739,4996.386 4547.528,4992.808 4548.423,4988.783 4549.317,4984.758 4551.105,4981.18 4552,4977.155 4552.895,4973.131 4553.79,4969.106 4555.578,4965.528 4556.025,4962.398 4556.919,4958.373 4534.122,4952.566 4533.228,4954.355 4531.439,4955.697 4529.651,4957.039 4527.863,4958.381 4526.074,4959.723 4524.286,4961.065 4522.945,4961.512 4521.157,4962.854 4519.368,4964.196 4517.58,4965.539 4514.897,4966.434 4513.109,4967.775 4511.768,4968.223 4509.086,4969.118 4507.297,4970.46 4504.616,4971.355 4502.827,4972.697 4500.145,4973.592 4497.909,4973.593 4495.227,4974.488 4493.439,4975.83 4490.756,4976.725 4488.074,4977.62 4485.838,4977.62 4483.157,4978.516 4480.474,4979.41 4478.239,4979.411 4475.556,4980.306 4473.322,4980.307 4470.639,4981.202 4467.957,4982.097 4464.38,4982.545 4460.804,4982.993 4458.122,4983.888 4454.545,4984.336 4450.968,4984.784 4447.393,4985.232 4444.71,4986.127 4441.133,4986.575 4437.557,4987.024 4434.429,4986.578 4430.852,4987.025 4428.169,4987.92 4424.594,4988.369 4421.464,4987.922 4420.123,4988.37 4417.887,4988.37 4416.994,4987.923 4415.653,4988.371 4414.758,4987.924 4413.417,4988.372 4411.182,4988.373 4410.288,4987.925 4408.946,4988.373 4407.605,4988.82 4406.712,4988.374 4404.476,4988.374 4403.135,4988.821 4402.242,4988.375 4400.9,4988.822 4400.005,4988.375 4397.771,4988.376 4396.43,4988.823 4395.535,4988.376 4394.194,4988.824 4392.854,4989.271 4391.065,4988.377 4389.724,4988.825 4388.831,4988.378 4387.489,4988.826 4385.253,4988.826 4384.36,4988.379 4383.019,4988.827 4382.124,4988.38 4380.783,4988.828 4377.653,4988.381 4374.078,4988.829 4370.054,4987.936 4366.479,4988.384 4363.349,4987.938 4360.22,4987.492 4357.09,4987.045 4353.961,4986.599 4350.386,4987.047 4347.256,4986.601 4343.233,4985.708 4340.103,4985.261 4336.974,4984.814 4333.846,4984.369 4330.716,4983.922 4327.586,4983.476 4325.799,4982.582 4322.669,4982.135 4320.434,4982.136 4317.752,4980.795 4315.517,4980.795 4312.835,4979.455 4310.6,4979.456 4307.917,4978.115 4305.683,4978.116 4303,4976.774 4300.765,4976.775 4298.083,4975.435 4296.295,4974.541 4293.166,4974.094 4291.378,4973.2 4289.59,4972.307 4287.802,4971.413 4285.119,4970.071 4283.332,4969.178 4281.543,4968.284 4279.756,4967.39 4277.967,4966.496 4275.286,4965.155 4273.945,4963.367 4272.157,4962.473 4270.815,4960.685 4269.028,4959.791 4267.687,4958.003 4265.899,4957.109 4243.545,4963.822 4245.333,4966.952 4245.78,4970.529 4247.121,4974.553 4248.461,4978.578 4248.908,4982.155 4250.248,4986.179 4252.037,4989.309 4253.377,4993.333 4253.823,4996.91 4255.164,5000.935 4256.505,5004.959 4258.292,5008.088 4259.633,5012.112 4260.974,5016.137 4263.208,5020.608 4264.997,5023.738 4266.337,5027.762 4268.124,5030.891 4269.465,5034.916 4271.7,5039.387 4273.488,5042.517 4276.17,5046.093 4277.51,5050.117 4280.192,5053.694 4281.979,5056.823 4284.661,5060.4 4286.896,5064.871 4288.684,5068.001 4291.365,5071.578 4294.047,5075.154 4297.176,5077.836 4299.858,5081.413 4302.54,5084.99 4305.222,5088.566 4308.351,5091.249 4311.032,5094.825 4314.161,5097.507 4317.289,5100.189 4319.971,5103.766 4323.1,5106.448 4326.229,5109.13 4329.358,5111.812 4333.381,5114.942 4336.957,5116.729 4340.086,5119.412 4343.215,5122.094 4346.791,5123.882 4350.814,5127.011 4354.391,5128.799 4357.52,5131.481 4361.096,5133.269 4364.672,5135.057 4368.248,5136.844 4371.377,5139.526 4374.953,5141.314 4378.529,5143.102 4382.105,5144.89 4385.681,5146.677 4389.257,5148.465 4403.562,5155.616">
		</polygon>

	</g>
	<g id="XL_P7_5_2">
		<polygon id="XL_C1_74__2" fill="#4C5B56"
			points="4716.936,5155.616 4730.794,5148.01 4733.924,5146.221 4737.053,5144.431 4741.523999999999,5142.194 4744.653,5140.404 4747.782999999999,5138.615 4751.3589999999995,5135.931 4754.489,5134.142 4758.96,5131.905 4762.088,5130.115 4765.666,5127.431 4769.242,5124.747 4772.371999999999,5122.958 4775.947999999999,5120.273 4779.525,5117.59 4782.206999999999,5114.458 4785.784,5111.775 4789.361,5109.091 4792.043,5105.959 4795.621,5103.276 4798.303,5100.145 4801.879,5097.461 4804.562,5094.331 4807.245,5091.199 4809.927,5088.068 4812.61,5084.938 4815.293,5081.807 4818.422,5077.781 4821.103999999999,5074.65 4823.788,5071.52 4825.576,5067.941 4828.706999999999,5063.917 4830.495,5060.338 4833.177,5057.208 4834.965999999999,5053.63 4837.202,5049.157 4838.99,5045.58 4840.7789999999995,5042.002 4842.567,5038.424 4844.356,5034.846 4846.592,5030.374 4848.38,5026.796 4850.169,5023.218 4851.063999999999,5019.193 4852.853,5015.616 4854.641,5012.038 4855.535,5008.013 4857.324,5004.435 4858.218,5000.41 4859.112999999999,4996.386 4860.902,4992.808 4861.797,4988.783 4862.691,4984.758 4864.478999999999,4981.18 4865.374,4977.155 4866.269,4973.131 4867.164,4969.106 4868.952,4965.528 4869.398999999999,4962.398 4870.293,4958.373 4847.496,4952.566 4846.602,4954.355 4844.813,4955.697 4843.025,4957.039 4841.237,4958.381 4839.447999999999,4959.723 4837.66,4961.065 4836.3189999999995,4961.512 4834.531,4962.854 4832.742,4964.196 4830.954,4965.539 4828.271,4966.434 4826.483,4967.775 4825.142,4968.223 4822.46,4969.118 4820.670999999999,4970.46 4817.99,4971.355 4816.201,4972.697 4813.519,4973.592 4811.282999999999,4973.593 4808.601,4974.488 4806.813,4975.83 4804.13,4976.725 4801.447999999999,4977.62 4799.2119999999995,4977.62 4796.531,4978.516 4793.848,4979.41 4791.612999999999,4979.411 4788.929999999999,4980.306 4786.696,4980.307 4784.013,4981.202 4781.331,4982.097 4777.754,4982.545 4774.178,4982.993 4771.496,4983.888 4767.919,4984.336 4764.342,4984.784 4760.767,4985.232 4758.084,4986.127 4754.507,4986.575 4750.931,4987.024 4747.803,4986.578 4744.226,4987.025 4741.543,4987.92 4737.968,4988.369 4734.838,4987.922 4733.496999999999,4988.37 4731.2609999999995,4988.37 4730.3679999999995,4987.923 4729.027,4988.371 4728.132,4987.924 4726.791,4988.372 4724.556,4988.373 4723.661999999999,4987.925 4722.32,4988.373 4720.978999999999,4988.82 4720.086,4988.374 4717.849999999999,4988.374 4716.509,4988.821 4715.616,4988.375 4714.273999999999,4988.822 4713.379,4988.375 4711.1449999999995,4988.376 4709.804,4988.823 4708.909,4988.376 4707.568,4988.824 4706.228,4989.271 4704.438999999999,4988.377 4703.098,4988.825 4702.205,4988.378 4700.862999999999,4988.826 4698.6269999999995,4988.826 4697.7339999999995,4988.379 4696.393,4988.827 4695.498,4988.38 4694.157,4988.828 4691.027,4988.381 4687.452,4988.829 4683.428,4987.936 4679.853,4988.384 4676.723,4987.938 4673.594,4987.492 4670.464,4987.045 4667.335,4986.599 4663.76,4987.047 4660.63,4986.601 4656.607,4985.708 4653.477,4985.261 4650.348,4984.814 4647.219999999999,4984.369 4644.09,4983.922 4640.96,4983.476 4639.173,4982.582 4636.043,4982.135 4633.808,4982.136 4631.126,4980.795 4628.891,4980.795 4626.209,4979.455 4623.974,4979.456 4621.291,4978.115 4619.057,4978.116 4616.374,4976.774 4614.139,4976.775 4611.456999999999,4975.435 4609.669,4974.541 4606.54,4974.094 4604.7519999999995,4973.2 4602.964,4972.307 4601.1759999999995,4971.413 4598.4929999999995,4970.071 4596.706,4969.178 4594.9169999999995,4968.284 4593.13,4967.39 4591.340999999999,4966.496 4588.66,4965.155 4587.3189999999995,4963.367 4585.531,4962.473 4584.188999999999,4960.685 4582.402,4959.791 4581.061,4958.003 4579.273,4957.109 4556.919,4963.822 4558.706999999999,4966.952 4559.1539999999995,4970.529 4560.495,4974.553 4561.835,4978.578 4562.282,4982.155 4563.621999999999,4986.179 4565.411,4989.309 4566.751,4993.333 4567.197,4996.91 4568.538,5000.935 4569.879,5004.959 4571.666,5008.088 4573.007,5012.112 4574.348,5016.137 4576.581999999999,5020.608 4578.371,5023.738 4579.711,5027.762 4581.498,5030.891 4582.839,5034.916 4585.074,5039.387 4586.862,5042.517 4589.544,5046.093 4590.884,5050.117 4593.566,5053.694 4595.353,5056.823 4598.035,5060.4 4600.2699999999995,5064.871 4602.058,5068.001 4604.739,5071.578 4607.420999999999,5075.154 4610.55,5077.836 4613.232,5081.413 4615.914,5084.99 4618.596,5088.566 4621.724999999999,5091.249 4624.406,5094.825 4627.535,5097.507 4630.663,5100.189 4633.344999999999,5103.766 4636.474,5106.448 4639.603,5109.13 4642.732,5111.812 4646.755,5114.942 4650.331,5116.729 4653.46,5119.412 4656.589,5122.094 4660.165,5123.882 4664.188,5127.011 4667.764999999999,5128.799 4670.894,5131.481 4674.469999999999,5133.269 4678.045999999999,5135.057 4681.621999999999,5136.844 4684.751,5139.526 4688.327,5141.314 4691.903,5143.102 4695.478999999999,5144.89 4699.054999999999,5146.677 4702.630999999999,5148.465 4716.936,5155.616">
		</polygon>
		<polygon id="XL_P7_Outline_5__2" fill="none" stroke="#000000" stroke-miterlimit="10"
			points="4716.936,5155.616 4730.794,5148.01 4733.924,5146.221 4737.053,5144.431 4741.523999999999,5142.194 4744.653,5140.404 4747.782999999999,5138.615 4751.3589999999995,5135.931 4754.489,5134.142 4758.96,5131.905 4762.088,5130.115 4765.666,5127.431 4769.242,5124.747 4772.371999999999,5122.958 4775.947999999999,5120.273 4779.525,5117.59 4782.206999999999,5114.458 4785.784,5111.775 4789.361,5109.091 4792.043,5105.959 4795.621,5103.276 4798.303,5100.145 4801.879,5097.461 4804.562,5094.331 4807.245,5091.199 4809.927,5088.068 4812.61,5084.938 4815.293,5081.807 4818.422,5077.781 4821.103999999999,5074.65 4823.788,5071.52 4825.576,5067.941 4828.706999999999,5063.917 4830.495,5060.338 4833.177,5057.208 4834.965999999999,5053.63 4837.202,5049.157 4838.99,5045.58 4840.7789999999995,5042.002 4842.567,5038.424 4844.356,5034.846 4846.592,5030.374 4848.38,5026.796 4850.169,5023.218 4851.063999999999,5019.193 4852.853,5015.616 4854.641,5012.038 4855.535,5008.013 4857.324,5004.435 4858.218,5000.41 4859.112999999999,4996.386 4860.902,4992.808 4861.797,4988.783 4862.691,4984.758 4864.478999999999,4981.18 4865.374,4977.155 4866.269,4973.131 4867.164,4969.106 4868.952,4965.528 4869.398999999999,4962.398 4870.293,4958.373 4847.496,4952.566 4846.602,4954.355 4844.813,4955.697 4843.025,4957.039 4841.237,4958.381 4839.447999999999,4959.723 4837.66,4961.065 4836.3189999999995,4961.512 4834.531,4962.854 4832.742,4964.196 4830.954,4965.539 4828.271,4966.434 4826.483,4967.775 4825.142,4968.223 4822.46,4969.118 4820.670999999999,4970.46 4817.99,4971.355 4816.201,4972.697 4813.519,4973.592 4811.282999999999,4973.593 4808.601,4974.488 4806.813,4975.83 4804.13,4976.725 4801.447999999999,4977.62 4799.2119999999995,4977.62 4796.531,4978.516 4793.848,4979.41 4791.612999999999,4979.411 4788.929999999999,4980.306 4786.696,4980.307 4784.013,4981.202 4781.331,4982.097 4777.754,4982.545 4774.178,4982.993 4771.496,4983.888 4767.919,4984.336 4764.342,4984.784 4760.767,4985.232 4758.084,4986.127 4754.507,4986.575 4750.931,4987.024 4747.803,4986.578 4744.226,4987.025 4741.543,4987.92 4737.968,4988.369 4734.838,4987.922 4733.496999999999,4988.37 4731.2609999999995,4988.37 4730.3679999999995,4987.923 4729.027,4988.371 4728.132,4987.924 4726.791,4988.372 4724.556,4988.373 4723.661999999999,4987.925 4722.32,4988.373 4720.978999999999,4988.82 4720.086,4988.374 4717.849999999999,4988.374 4716.509,4988.821 4715.616,4988.375 4714.273999999999,4988.822 4713.379,4988.375 4711.1449999999995,4988.376 4709.804,4988.823 4708.909,4988.376 4707.568,4988.824 4706.228,4989.271 4704.438999999999,4988.377 4703.098,4988.825 4702.205,4988.378 4700.862999999999,4988.826 4698.6269999999995,4988.826 4697.7339999999995,4988.379 4696.393,4988.827 4695.498,4988.38 4694.157,4988.828 4691.027,4988.381 4687.452,4988.829 4683.428,4987.936 4679.853,4988.384 4676.723,4987.938 4673.594,4987.492 4670.464,4987.045 4667.335,4986.599 4663.76,4987.047 4660.63,4986.601 4656.607,4985.708 4653.477,4985.261 4650.348,4984.814 4647.219999999999,4984.369 4644.09,4983.922 4640.96,4983.476 4639.173,4982.582 4636.043,4982.135 4633.808,4982.136 4631.126,4980.795 4628.891,4980.795 4626.209,4979.455 4623.974,4979.456 4621.291,4978.115 4619.057,4978.116 4616.374,4976.774 4614.139,4976.775 4611.456999999999,4975.435 4609.669,4974.541 4606.54,4974.094 4604.7519999999995,4973.2 4602.964,4972.307 4601.1759999999995,4971.413 4598.4929999999995,4970.071 4596.706,4969.178 4594.9169999999995,4968.284 4593.13,4967.39 4591.340999999999,4966.496 4588.66,4965.155 4587.3189999999995,4963.367 4585.531,4962.473 4584.188999999999,4960.685 4582.402,4959.791 4581.061,4958.003 4579.273,4957.109 4556.919,4963.822 4558.706999999999,4966.952 4559.1539999999995,4970.529 4560.495,4974.553 4561.835,4978.578 4562.282,4982.155 4563.621999999999,4986.179 4565.411,4989.309 4566.751,4993.333 4567.197,4996.91 4568.538,5000.935 4569.879,5004.959 4571.666,5008.088 4573.007,5012.112 4574.348,5016.137 4576.581999999999,5020.608 4578.371,5023.738 4579.711,5027.762 4581.498,5030.891 4582.839,5034.916 4585.074,5039.387 4586.862,5042.517 4589.544,5046.093 4590.884,5050.117 4593.566,5053.694 4595.353,5056.823 4598.035,5060.4 4600.2699999999995,5064.871 4602.058,5068.001 4604.739,5071.578 4607.420999999999,5075.154 4610.55,5077.836 4613.232,5081.413 4615.914,5084.99 4618.596,5088.566 4621.724999999999,5091.249 4624.406,5094.825 4627.535,5097.507 4630.663,5100.189 4633.344999999999,5103.766 4636.474,5106.448 4639.603,5109.13 4642.732,5111.812 4646.755,5114.942 4650.331,5116.729 4653.46,5119.412 4656.589,5122.094 4660.165,5123.882 4664.188,5127.011 4667.764999999999,5128.799 4670.894,5131.481 4674.469999999999,5133.269 4678.045999999999,5135.057 4681.621999999999,5136.844 4684.751,5139.526 4688.327,5141.314 4691.903,5143.102 4695.478999999999,5144.89 4699.054999999999,5146.677 4702.630999999999,5148.465 4716.936,5155.616">
		</polygon>

	</g>
</svg>