<?xml version="1.0" encoding="utf-8"?>
<!-- Generator: Adobe Illustrator 25.2.3, SVG Export Plug-In . SVG Version: 6.00 Build 0)  -->
<svg version="1.1" xmlns="http://www.w3.org/2000/svg" xmlns:xlink="http://www.w3.org/1999/xlink" x="0px" y="0px"
    viewBox="0 0 6000 6000" enable-background="new 0 0 6000 6000" xml:space="preserve">

    <g id="XL">
        <g id="P8_5_">
            <path id="P8_Outline_4_" fill="none" stroke="#000000" stroke-miterlimit="10" d="M5299.622,5326.42l-3.998-1h-3.998l-3.998-1
			l-2.999-1h-3.998l-3.998-1l-3.998-1l-3.998-1l-3.998-1h-3.998l-3.997-1l-3.998-1l-3.998-1l-3.998-1l-2.999-1l-4.997-1l-3.998-2
			l-3.998-1l-3.998-2l-3.998-1l-4.998-2l-3.998-1l-3.998-2l-3.998-2l-3.998-2l-3.998-2l-3.998-2l-3.998-2l-3.998-2l-3.998-2
			l-3.998-3l-4.998-3l-4.997-3l-3.998-3l-4.997-3l-3.998-3l-4.998-4l-3.998-3l-3.998-4l-3.998-3l-3.998-4l-3.998-4l-3.998-4
			l-2.998-4l-3.998-5l-2.998-4l-2.999-4l-2.999-4l-2.998-5l-2.998-4l-2-5l-2.998-4l-1.999-5l-1.999-5l-1.999-5l-1.999-4l-1.999-5
			l-1.999-5l-1-5l-1.998-5l-2-6l-0.999-6l-0.999-6l-2-6l-0.999-5l-0.999-6l-1-6l-1-6v-6l-0.999-6l-0.999-6v-6l-1-6v-6v-6l-1-12
			l-0.999-11v-11l-0.999-11v-12l-1-11v-11v-12l-1-11v-11v-12v-11v-11v-11v-12l-0.999-10v-10v-11v-10v-10v-11v-10v-11v-10v-10
			l0.999-11v-10v-10v-11v-10v-13v-13v-13v-14v-13v-13v-13v-13v-13v-13v-13v-14v-13v-13v-36l-135.933,33l-0.999,31v7v7v7l-1,7v7v8v7
			v7l-1,7v7v7v7l-0.999,7v7v12l-0.999,12v12l-1,12v12l-1,12v12l-0.999,12v12l-0.999,12v12l-1,12l-1,12v12l-0.999,12v11l-0.999,11v11
			l-1,11v11l-1,10l-0.999,11v11l-0.999,11v11l-1,11v11l-1,11v11l-0.999,11v9v9l-0.999,9v9l-1,9v10l-1,9l-0.999,9v9l-0.999,9l-2,10
			l-0.999,9l-0.999,9l-2,9l-1.998,10l-2,8l-1.998,9l-2,8l-2.998,9l-1.999,8l-2.998,8l-3.998,8l-2.999,8l-3.998,8l-4.997,7l-3.998,7
			l-4.997,7l-5.998,6l-4.997,6l-5.997,6l-21.989-6l-0.999,3l-1,4l-1,4l-0.999,3l-1.999,4l-1,4l-0.999,3l-0.999,4l-1,3l-1,4l-0.999,3
			l-1.999,4l-1,3l-0.999,4l-0.999,3l-2,3l-0.999,3l-1.999,4l-1,3l-1.998,3l-1,3l-1.999,3l-1.999,3l-1.999,3l-0.999,3l-2,3l-1.998,3
			l-2,3l-1.998,3l-2,3l-1.998,3l-2,2l-2.998,3l-1.999,3l-1.999,2l-2.998,3l-2,2l-2.998,3l-1.999,2l-2.998,3l-1.999,2l-2.999,2
			l-1.999,3l-2.998,2l-2.999,2l-2.998,2l-2.999,2l-2.998,2l-2.998,2l-2.999,2l-2.999,2l-2.998,2l-2.998,1l-2.999,2l-2.999,2
			l-3.998,2l-2.998,2l-2.998,2l-3.998,2l-14.993,8l-1.999,87l625.691-193L5299.622,5326.42L5299.622,5326.42z" />
            <path id="Base_49_" fill="#1E1E29" d="M5299.622,5326.42l-3.998-1h-3.998l-3.998-1l-2.999-1h-3.998l-3.998-1l-3.998-1l-3.998-1
			l-3.998-1h-3.998l-3.997-1l-3.998-1l-3.998-1l-3.998-1l-2.999-1l-4.997-1l-3.998-2l-3.998-1l-3.998-2l-3.998-1l-4.998-2l-3.998-1
			l-3.998-2l-3.998-2l-3.998-2l-3.998-2l-3.998-2l-3.998-2l-3.998-2l-3.998-2l-3.998-3l-4.998-3l-4.997-3l-3.998-3l-4.997-3
			l-3.998-3l-4.998-4l-3.998-3l-3.998-4l-3.998-3l-3.998-4l-3.998-4l-3.998-4l-2.998-4l-3.998-5l-2.998-4l-2.999-4l-2.999-4
			l-2.998-5l-2.998-4l-2-5l-2.998-4l-1.999-5l-1.999-5l-1.999-5l-1.999-4l-1.999-5l-1.999-5l-1-5l-1.998-5l-2-6l-0.999-6l-0.999-6
			l-2-6l-0.999-5l-0.999-6l-1-6l-1-6v-6l-0.999-6l-0.999-6v-6l-1-6v-6v-6l-1-12l-0.999-11v-11l-0.999-11v-12l-1-11v-11v-12l-1-11
			v-11v-12v-11v-11v-11v-12l-0.999-10v-10v-11v-10v-10v-11v-10v-11v-10v-10l0.999-11v-10v-10v-11v-10v-13v-13v-13v-14v-13v-13v-13
			v-13v-13v-13v-13v-14v-13v-13v-36l-135.933,33l-0.999,31v7v7v7l-1,7v7v8v7v7l-1,7v7v7v7l-0.999,7v7v12l-0.999,12v12l-1,12v12
			l-1,12v12l-0.999,12v12l-0.999,12v12l-1,12l-1,12v12l-0.999,12v11l-0.999,11v11l-1,11v11l-1,10l-0.999,11v11l-0.999,11v11l-1,11
			v11l-1,11v11l-0.999,11v9v9l-0.999,9v9l-1,9v10l-1,9l-0.999,9v9l-0.999,9l-2,10l-0.999,9l-0.999,9l-2,9l-1.998,10l-2,8l-1.998,9
			l-2,8l-2.998,9l-1.999,8l-2.998,8l-3.998,8l-2.999,8l-3.998,8l-4.997,7l-3.998,7l-4.997,7l-5.998,6l-4.997,6l-5.997,6l-21.989-6
			l-0.999,3l-1,4l-1,4l-0.999,3l-1.999,4l-1,4l-0.999,3l-0.999,4l-1,3l-1,4l-0.999,3l-1.999,4l-1,3l-0.999,4l-0.999,3l-2,3l-0.999,3
			l-1.999,4l-1,3l-1.998,3l-1,3l-1.999,3l-1.999,3l-1.999,3l-0.999,3l-2,3l-1.998,3l-2,3l-1.998,3l-2,3l-1.998,3l-2,2l-2.998,3
			l-1.999,3l-1.999,2l-2.998,3l-2,2l-2.998,3l-1.999,2l-2.998,3l-1.999,2l-2.999,2l-1.999,3l-2.998,2l-2.999,2l-2.998,2l-2.999,2
			l-2.998,2l-2.998,2l-2.999,2l-2.999,2l-2.998,2l-2.998,1l-2.999,2l-2.999,2l-3.998,2l-2.998,2l-2.998,2l-3.998,2l-14.993,8
			l-1.999,87l625.691-193L5299.622,5326.42L5299.622,5326.42z" />
            <g>
                <text transform="matrix(0.7257 -0.2285 0.3004 0.9538 5258.6953 5362.7295)">
                    <tspan x="0" y="0" fill="#E74810" font-family="'ArialMT'" font-size="5px">Code:BR 4001, Size:X
                    </tspan>
                    <tspan x="50.029" y="0" fill="#E74810" font-family="'ArialMT'" font-size="5px">L</tspan>
                </text>
            </g>
        </g>
    </g>

</svg>