<svg xmlns="http://www.w3.org/2000/svg" version="1.1" xmlns:xlink="http://www.w3.org/1999/xlink" xmlns:svgjs="http://svgjs.dev/svgjs" width="4000" height="5000" viewBox="0 0 4000 5000"><g id="Elastic_Band_1_1">
		
			<rect id="Elastic_Band_Outline_6__1" x="0" y="0.5720000000001164" fill="none" stroke="#000000" stroke-miterlimit="10" width="1165.4" height="141.732"></rect>
		<rect id="Base_63__1" x="0" y="0.5720000000001164" fill="#211E1B" width="1165.4" height="141.732"></rect>
		<path id="C4_55__1" fill="#454340" d="M299.68899999999996 142.3040000000001H92.02999999999997H0.0009999999999763531V61.472999999999956L77.01099999999997 0.5709999999999127H466.082L299.68899999999996 142.3040000000001ZM913.504 0.5709999999999127H548.089L381.696 142.30299999999988H747.111L913.504 0.5709999999999127Z "></path>
		<g id="Elastic_Band_1_1extra_1">
			<g>
				<path fill="#E52421" d="M1044.7620000000002 3.9979999999995925C1044.7620000000002 1.7989999999999782 1046.0580000000002 0.4579999999996289 1047.7880000000002 0.4579999999996289C1048.6160000000002 0.4579999999996289 1049.2650000000003 0.8599999999996726 1049.6640000000002 1.2989999999999782L1049.188 1.863999999999578C1048.8290000000002 1.4809999999997672 1048.3780000000002 1.2199999999993452 1047.803 1.2199999999993452C1046.5140000000001 1.2199999999993452 1045.6570000000002 2.2759999999989304 1045.6570000000002 3.9749999999994543C1045.6570000000002 5.688999999999396 1046.4750000000001 6.7629999999990105 1047.7680000000003 6.7629999999990105C1048.4180000000003 6.7629999999990105 1048.9140000000002 6.479999999998654 1049.3490000000002 5.996999999999389L1049.8250000000003 6.541999999999462C1049.2860000000003 7.166999999999462 1048.6180000000002 7.52599999999984 1047.7320000000002 7.52599999999984C1046.035 7.527000000000044 1044.7620000000002 6.212999999999738 1044.7620000000002 3.9979999999995925Z "></path>
				<path fill="#E52421" d="M1050.6390000000001 4.8840000000000146C1050.6390000000001 3.19800000000032 1051.7420000000002 2.2269999999998618 1052.98 2.2269999999998618S1055.321 3.1989999999996144 1055.321 4.8840000000000146C1055.321 6.555999999999585 1054.2179999999998 7.528000000000247 1052.98 7.528000000000247S1050.6390000000001 6.555000000000291 1050.6390000000001 4.8840000000000146ZM1054.438 4.8840000000000146C1054.438 3.725999999999658 1053.8490000000002 2.9390000000003056 1052.98 2.9390000000003056C1052.112 2.9390000000003056 1051.523 3.7260000000005675 1051.523 4.8840000000000146C1051.523 6.041000000000167 1052.1119999999999 6.8159999999998035 1052.98 6.8159999999998035C1053.8490000000002 6.8149999999996 1054.438 6.041000000000167 1054.438 4.8840000000000146Z "></path>
				<path fill="#E52421" d="M1056.2890000000002 4.8840000000000146C1056.2890000000002 3.244999999999891 1057.3230000000003 2.2269999999998618 1058.4750000000001 2.2269999999998618C1059.063 2.2269999999998618 1059.448 2.4479999999994106 1059.891 2.811999999999898L1059.855 1.9459999999999127V0H1060.709V7.403000000000247H1060.0030000000002L1059.9310000000003 6.806000000000495H1059.9030000000002C1059.5100000000002 7.200000000000728 1058.9720000000002 7.528000000000247 1058.3700000000003 7.528000000000247C1057.1080000000002 7.527000000000044 1056.2890000000002 6.5659999999998035 1056.2890000000002 4.8840000000000146ZM1059.855 6.118000000000393V3.4710000000004584C1059.423 3.087000000000444 1059.035 2.946000000000822 1058.623 2.946000000000822C1057.815 2.946000000000822 1057.173 3.7250000000012733 1057.173 4.8770000000004075C1057.173 6.088000000000648 1057.675 6.8090000000001965 1058.56 6.8090000000001965C1059.026 6.806999999999789 1059.431 6.579999999999927 1059.855 6.118000000000393Z "></path>
				<path fill="#E52421" d="M1062.0430000000001 4.8840000000000146C1062.0430000000001 3.238999999999578 1063.151 2.2269999999998618 1064.314 2.2269999999998618C1065.602 2.2269999999998618 1066.3300000000002 3.1520000000000437 1066.3300000000002 4.596999999999753C1066.3300000000002 4.777999999999338 1066.314 4.956999999999425 1066.2900000000002 5.081999999999425H1062.8890000000001C1062.95 6.151999999999134 1063.604 6.845999999999549 1064.5670000000002 6.845999999999549C1065.0510000000002 6.845999999999549 1065.4500000000003 6.6899999999996 1065.8240000000003 6.4429999999993015L1066.1310000000003 7.003999999998996C1065.6880000000003 7.2939999999989595 1065.1500000000003 7.527999999999338 1064.4630000000004 7.527999999999338C1063.1160000000002 7.527000000000044 1062.0430000000001 6.542999999999665 1062.0430000000001 4.8840000000000146ZM1065.575 4.470000000000255C1065.575 3.4580000000005384 1065.1200000000001 2.9080000000003565 1064.3300000000002 2.9080000000003565C1063.6200000000001 2.9080000000003565 1062.9850000000001 3.4780000000000655 1062.882 4.470000000000255H1065.575Z "></path>
				<path fill="#E52421" d="M1067.3990000000001 3.132999999999811C1067.3990000000001 2.7399999999997817 1067.678 2.4729999999999563 1068.018 2.4729999999999563S1068.637 2.7409999999999854 1068.637 3.132999999999811C1068.637 3.51299999999992 1068.358 3.7799999999997453 1068.018 3.7799999999997453S1067.3990000000001 3.5119999999997162 1067.3990000000001 3.132999999999811ZM1067.3990000000001 6.880000000000109C1067.3990000000001 6.48700000000008 1067.678 6.220000000000255 1068.018 6.220000000000255S1068.637 6.488000000000284 1068.637 6.880000000000109C1068.637 7.2590000000000146 1068.358 7.527000000000044 1068.018 7.527000000000044S1067.3990000000001 7.2590000000000146 1067.3990000000001 6.880000000000109Z "></path>
				<path fill="#E52421" d="M1070.2430000000002 0.5820000000003347H1072.267C1073.655 0.5820000000003347 1074.614 1.0540000000000873 1074.614 2.253000000000611C1074.614 2.9270000000005894 1074.255 3.5250000000005457 1073.617 3.7330000000001746V3.7750000000005457C1074.432 3.9350000000004 1075.0049999999999 4.47400000000016 1075.0049999999999 5.407000000000153C1075.0049999999999 6.747000000000298 1073.943 7.402000000000044 1072.4229999999998 7.402000000000044H1070.2429999999997V0.5820000000003347ZM1072.121 3.4840000000003783C1073.2810000000002 3.4840000000003783 1073.7620000000002 3.0560000000004948 1073.7620000000002 2.365000000000691C1073.7620000000002 1.5680000000011205 1073.2160000000001 1.2710000000006403 1072.161 1.2710000000006403H1071.111V3.4840000000003783L1072.121 3.4840000000003783L1072.121 3.4840000000003783ZM1072.2990000000002 6.713999999999942C1073.4650000000001 6.713999999999942 1074.1530000000002 6.293999999999869 1074.1530000000002 5.373999999999796C1074.1530000000002 4.533999999999651 1073.4920000000002 4.149999999999636 1072.2990000000002 4.149999999999636H1071.111V6.712999999999738L1072.2990000000002 6.713999999999942L1072.2990000000002 6.713999999999942Z "></path>
				<path fill="#E52421" d="M1076.3570000000002 0.5820000000003347H1078.4940000000001C1079.883 0.5820000000003347 1080.88 1.081000000000131 1080.88 2.5020000000004075C1080.88 3.8640000000004875 1079.883 4.520000000000437 1078.4940000000001 4.520000000000437H1077.2250000000001V7.403000000000247H1076.3570000000002L1076.3570000000002 0.5820000000003347L1076.3570000000002 0.5820000000003347ZM1078.3680000000002 3.8149999999996C1079.43 3.8149999999996 1080.0140000000001 3.384999999999309 1080.0140000000001 2.501999999999498C1080.0140000000001 1.6049999999995634 1079.43 1.2859999999991487 1078.3680000000002 1.2859999999991487H1077.2240000000002V3.8149999999996H1078.3680000000002ZM1078.3220000000001 4.282000000000153L1079.0030000000002 3.8330000000005384L1081.084 7.402000000000953H1080.1000000000001L1078.3220000000001 4.282000000000153Z "></path>
				<path fill="#E52421" d="M1086.5770000000002 2.96100000000024C1086.5770000000002 2.61200000000008 1086.6050000000002 2.0390000000006694 1086.6260000000002 1.6909999999998035H1086.5850000000003C1086.4180000000003 2.0059999999994034 1086.2310000000002 2.295999999999367 1086.0440000000003 2.6260000000002037L1084.4960000000003 4.891999999999825H1088.2890000000002V5.572999999999411H1083.601V5.008999999999105L1086.4370000000001 0.7769999999991342H1087.3860000000002V7.403999999999542H1086.5770000000002V2.96100000000024Z "></path>
				<path fill="#E52421" d="M1089.044 4.064000000000306C1089.044 1.8410000000003492 1089.845 0.6500000000005457 1091.1680000000001 0.6500000000005457C1092.4920000000002 0.6500000000005457 1093.2920000000001 1.8450000000002547 1093.2920000000001 4.064000000000306C1093.2920000000001 6.286000000000058 1092.4920000000002 7.527000000000044 1091.1680000000001 7.527000000000044C1089.845 7.527000000000044 1089.044 6.286000000000058 1089.044 4.064000000000306ZM1092.4630000000002 4.064000000000306C1092.4630000000002 2.1210000000000946 1091.9390000000003 1.3380000000006476 1091.1680000000001 1.3380000000006476C1090.3980000000001 1.3380000000006476 1089.874 2.1200000000008004 1089.874 4.064000000000306C1089.874 6.006000000000313 1090.398 6.838000000000648 1091.1680000000001 6.838000000000648C1091.939 6.838999999999942 1092.4630000000002 6.006999999999607 1092.4630000000002 4.064000000000306Z "></path>
				<path fill="#E52421" d="M1094.027 6.5919999999996435L1094.457 6.033999999999651C1094.855 6.447999999999411 1095.373 6.8149999999996 1096.1490000000001 6.8149999999996C1096.9540000000002 6.8149999999996 1097.525 6.344000000000051 1097.525 5.599999999999454C1097.525 4.812999999999192 1096.9830000000002 4.285999999999149 1095.411 4.285999999999149V3.6299999999991996C1096.814 3.6299999999991996 1097.2920000000001 3.089999999999236 1097.2920000000001 2.3959999999988213C1097.2920000000001 1.7509999999983847 1096.8490000000002 1.3469999999988431 1096.1460000000002 1.3469999999988431C1095.5910000000001 1.3469999999988431 1095.1220000000003 1.6249999999990905 1094.7320000000002 2.018999999998414L1094.2720000000002 1.4759999999987485C1094.785 1.0009999999983847 1095.392 0.6509999999989304 1096.1760000000002 0.6509999999989304C1097.3280000000002 0.6509999999989304 1098.1580000000001 1.2629999999990105 1098.1580000000001 2.333999999998923C1098.1580000000001 3.1319999999986976 1097.6740000000002 3.6429999999991196 1096.9540000000002 3.9079999999985375V3.9499999999989086C1097.755 4.138999999999214 1098.3920000000003 4.723999999999251 1098.3920000000003 5.634999999999309C1098.3920000000003 6.815999999998894 1097.4170000000004 7.528999999999542 1096.2040000000002 7.528999999999542C1095.141 7.527000000000044 1094.4730000000002 7.082000000000335 1094.027 6.5919999999996435Z "></path>
				<path fill="#E52421" d="M1099.333 6.895999999999731C1101.325 4.9099999999998545 1102.452 3.7159999999994398 1102.452 2.6390000000001237C1102.452 1.8820000000005166 1102.041 1.3460000000004584 1101.195 1.3460000000004584C1100.6399999999999 1.3460000000004584 1100.163 1.6970000000001164 1099.7859999999998 2.1400000000003274L1099.2899999999997 1.6570000000001528C1099.8439999999998 1.0489999999999782 1100.4409999999998 0.6500000000005457 1101.2999999999997 0.6500000000005457C1102.5259999999998 0.6500000000005457 1103.2889999999998 1.423000000000684 1103.2889999999998 2.6010000000005675C1103.2889999999998 3.8450000000002547 1102.1469999999997 5.080000000000837 1100.5839999999998 6.72400000000016C1100.9419999999998 6.695999999999913 1101.3549999999998 6.667000000000371 1101.6979999999999 6.667000000000371H1103.6139999999998V7.401000000000749H1099.3329999999999L1099.333 6.895999999999731L1099.333 6.895999999999731Z "></path>
				<path fill="#E52421" d="M1106.6580000000001 8.666000000000167C1107.2440000000001 8.40900000000056 1107.5970000000002 7.949000000000524 1107.594 7.3770000000004075L1107.502 6.609000000000378L1107.9199999999998 7.233000000000175C1107.8069999999998 7.371000000000095 1107.6509999999998 7.411000000000058 1107.4879999999998 7.411000000000058C1107.158 7.411000000000058 1106.869 7.2020000000002256 1106.869 6.815000000000509C1106.869 6.443000000000211 1107.163 6.21900000000096 1107.503 6.21900000000096C1107.9569999999999 6.21900000000096 1108.229 6.598000000000866 1108.229 7.222000000000662C1108.229 8.1200000000008 1107.7060000000001 8.819000000000415 1106.868 9.167000000000371L1106.6580000000001 8.666000000000167Z "></path>
				<path fill="#E52421" d="M1109.1930000000002 6.514000000000124L1109.7130000000002 5.918000000000575C1110.2040000000002 6.428000000000793 1110.8860000000002 6.7630000000008295 1111.5940000000003 6.7630000000008295C1112.4900000000002 6.7630000000008295 1113.0200000000002 6.3180000000011205 1113.0200000000002 5.655000000000655C1113.0200000000002 4.959000000000742 1112.5270000000003 4.7370000000009895 1111.8820000000003 4.4560000000010405L1110.9030000000002 4.023000000001048C1110.2680000000003 3.752000000001317 1109.5220000000002 3.270000000001346 1109.5220000000002 2.267000000000735C1109.5220000000002 1.2250000000003638 1110.43 0.4570000000003347 1111.669 0.4570000000003347C1112.477 0.4570000000003347 1113.1970000000001 0.8070000000006985 1113.6770000000001 1.3020000000005894L1113.217 1.860000000000582C1112.7990000000002 1.4650000000001455 1112.2990000000002 1.2200000000002547 1111.669 1.2200000000002547C1110.903 1.2200000000002547 1110.3980000000001 1.6060000000006767 1110.3980000000001 2.2160000000003492C1110.3980000000001 2.8720000000002983 1110.9930000000002 3.118000000000393 1111.527 3.344000000000051L1112.499 3.7650000000003274C1113.288 4.104000000000269 1113.904 4.575000000000728 1113.904 5.588000000000648C1113.904 6.665000000000873 1113.013 7.526000000000749 1111.58 7.526000000000749C1110.621 7.527000000000044 1109.788 7.136999999999716 1109.1930000000002 6.514000000000124Z "></path>
				<path fill="#E52421" d="M1115.0030000000002 0.761000000000422C1115.0030000000002 0.4250000000001819 1115.2610000000002 0.20900000000074215 1115.593 0.20900000000074215S1116.184 0.4250000000010914 1116.184 0.761000000000422C1116.184 1.0830000000005384 1115.925 1.3130000000001019 1115.593 1.3130000000001019S1115.0030000000002 1.082999999999629 1115.0030000000002 0.761000000000422ZM1115.16 2.350999999999658H1116.0140000000001V7.402000000000044H1115.16V2.350999999999658Z "></path>
				<path fill="#E52421" d="M1117.188 6.944999999999709L1119.846 3.0479999999997744H1117.483V2.3519999999998618H1120.927V2.8079999999999927L1118.269 6.706000000000131H1121.015V7.402000000000044H1117.188L1117.188 6.944999999999709L1117.188 6.944999999999709Z "></path>
				<path fill="#E52421" d="M1121.6560000000002 4.8840000000000146C1121.6560000000002 3.238999999999578 1122.7640000000001 2.2269999999998618 1123.9270000000001 2.2269999999998618C1125.2150000000001 2.2269999999998618 1125.9430000000002 3.1520000000000437 1125.9430000000002 4.596999999999753C1125.9430000000002 4.777999999999338 1125.9270000000001 4.956999999999425 1125.9030000000002 5.081999999999425H1122.5020000000002C1122.563 6.151999999999134 1123.217 6.845999999999549 1124.1800000000003 6.845999999999549C1124.6640000000002 6.845999999999549 1125.0630000000003 6.6899999999996 1125.4370000000004 6.4429999999993015L1125.7440000000004 7.003999999998996C1125.3010000000004 7.2939999999989595 1124.7630000000004 7.527999999999338 1124.0760000000005 7.527999999999338C1122.728 7.527000000000044 1121.6560000000002 6.542999999999665 1121.6560000000002 4.8840000000000146ZM1125.1870000000001 4.470000000000255C1125.1870000000001 3.4580000000005384 1124.7320000000002 2.9080000000003565 1123.9420000000002 2.9080000000003565C1123.2320000000002 2.9080000000003565 1122.5970000000002 3.4780000000000655 1122.4940000000001 4.470000000000255H1125.1870000000001Z "></path>
				<path fill="#E52421" d="M1128.8270000000002 6.895999999999731C1130.8190000000002 4.9099999999998545 1131.9460000000001 3.7159999999994398 1131.9460000000001 2.6390000000001237C1131.9460000000001 1.8820000000005166 1131.535 1.3460000000004584 1130.689 1.3460000000004584C1130.134 1.3460000000004584 1129.6570000000002 1.6970000000001164 1129.28 2.1400000000003274L1128.7839999999999 1.6570000000001528C1129.338 1.0489999999999782 1129.935 0.6500000000005457 1130.7939999999999 0.6500000000005457C1132.02 0.6500000000005457 1132.783 1.423000000000684 1132.783 2.6010000000005675C1132.783 3.8450000000002547 1131.6409999999998 5.080000000000837 1130.078 6.72400000000016C1130.436 6.695999999999913 1130.849 6.667000000000371 1131.192 6.667000000000371H1133.108V7.401000000000749H1128.827L1128.8270000000002 6.895999999999731L1128.8270000000002 6.895999999999731Z "></path>
				<path fill="#E52421" d="M1135.7240000000002 3.8789999999999054L1133.8690000000001 0.5820000000003347H1134.8260000000002L1135.7560000000003 2.3270000000002256C1135.9280000000003 2.6390000000001237 1136.0730000000003 2.9210000000002765 1136.2870000000003 3.318000000000211H1136.3280000000002C1136.5140000000001 2.9210000000002765 1136.6450000000002 2.6390000000001237 1136.8090000000002 2.3270000000002256L1137.7160000000001 0.5820000000003347H1138.63L1136.7740000000001 3.923000000000684L1138.7600000000002 7.402000000000953H1137.8020000000001L1136.8020000000001 5.566000000000713C1136.623 5.2260000000005675 1136.438 4.885000000001128 1136.219 4.470000000001164H1136.178C1135.98 4.885000000001128 1135.8080000000002 5.226000000001477 1135.6360000000002 5.566000000000713L1134.6520000000003 7.402000000000953H1133.7380000000003L1135.7240000000002 3.8789999999999054Z "></path>
				<path fill="#E52421" d="M1139.8460000000002 0.5820000000003347H1140.7140000000002V6.668000000000575H1143.6910000000003V7.402000000000953H1139.8460000000002L1139.8460000000002 0.5820000000003347L1139.8460000000002 0.5820000000003347Z "></path>
			</g>
		</g>
	</g><g id="Elastic_Band_1_2">
		
			<rect id="Elastic_Band_Outline_6__2" x="1165.4" y="0.5720000000001164" fill="none" stroke="#000000" stroke-miterlimit="10" width="1165.4" height="141.732"></rect>
		<rect id="Base_63__2" x="1165.4" y="0.5720000000001164" fill="#211E1B" width="1165.4" height="141.732"></rect>
		<path id="C4_55__2" fill="#454340" d="M1465.089 142.3040000000001H1257.43H1165.401V61.472999999999956L1242.411 0.5709999999999127H1631.482L1465.089 142.3040000000001ZM2078.904 0.5709999999999127H1713.489L1547.096 142.30299999999988H1912.511L2078.904 0.5709999999999127Z "></path>
		<g id="Elastic_Band_1_1extra_2">
			<g>
				<path fill="#E52421" d="M2210.1620000000003 3.9979999999995925C2210.1620000000003 1.7989999999999782 2211.4580000000005 0.4579999999996289 2213.188 0.4579999999996289C2214.0160000000005 0.4579999999996289 2214.6650000000004 0.8599999999996726 2215.0640000000003 1.2989999999999782L2214.588 1.863999999999578C2214.2290000000003 1.4809999999997672 2213.7780000000002 1.2199999999993452 2213.2030000000004 1.2199999999993452C2211.914 1.2199999999993452 2211.0570000000002 2.2759999999989304 2211.0570000000002 3.9749999999994543C2211.0570000000002 5.688999999999396 2211.875 6.7629999999990105 2213.1680000000006 6.7629999999990105C2213.818 6.7629999999990105 2214.3140000000003 6.479999999998654 2214.7490000000003 5.996999999999389L2215.2250000000004 6.541999999999462C2214.6860000000006 7.166999999999462 2214.018 7.52599999999984 2213.1320000000005 7.52599999999984C2211.4350000000004 7.527000000000044 2210.1620000000003 6.212999999999738 2210.1620000000003 3.9979999999995925Z "></path>
				<path fill="#E52421" d="M2216.039 4.8840000000000146C2216.039 3.19800000000032 2217.1420000000003 2.2269999999998618 2218.38 2.2269999999998618S2220.721 3.1989999999996144 2220.721 4.8840000000000146C2220.721 6.555999999999585 2219.618 7.528000000000247 2218.38 7.528000000000247S2216.039 6.555000000000291 2216.039 4.8840000000000146ZM2219.838 4.8840000000000146C2219.838 3.725999999999658 2219.2490000000003 2.9390000000003056 2218.38 2.9390000000003056C2217.512 2.9390000000003056 2216.923 3.7260000000005675 2216.923 4.8840000000000146C2216.923 6.041000000000167 2217.5119999999997 6.8159999999998035 2218.38 6.8159999999998035C2219.2490000000003 6.8149999999996 2219.838 6.041000000000167 2219.838 4.8840000000000146Z "></path>
				<path fill="#E52421" d="M2221.6890000000003 4.8840000000000146C2221.6890000000003 3.244999999999891 2222.7230000000004 2.2269999999998618 2223.875 2.2269999999998618C2224.463 2.2269999999998618 2224.848 2.4479999999994106 2225.291 2.811999999999898L2225.255 1.9459999999999127V0H2226.1090000000004V7.403000000000247H2225.4030000000002L2225.331 6.806000000000495H2225.3030000000003C2224.9100000000003 7.200000000000728 2224.3720000000003 7.528000000000247 2223.7700000000004 7.528000000000247C2222.5080000000003 7.527000000000044 2221.6890000000003 6.5659999999998035 2221.6890000000003 4.8840000000000146ZM2225.255 6.118000000000393V3.4710000000004584C2224.8230000000003 3.087000000000444 2224.4350000000004 2.946000000000822 2224.023 2.946000000000822C2223.215 2.946000000000822 2222.5730000000003 3.7250000000012733 2222.5730000000003 4.8770000000004075C2222.5730000000003 6.088000000000648 2223.075 6.8090000000001965 2223.96 6.8090000000001965C2224.4260000000004 6.806999999999789 2224.831 6.579999999999927 2225.255 6.118000000000393Z "></path>
				<path fill="#E52421" d="M2227.443 4.8840000000000146C2227.443 3.238999999999578 2228.5510000000004 2.2269999999998618 2229.714 2.2269999999998618C2231.0020000000004 2.2269999999998618 2231.7300000000005 3.1520000000000437 2231.7300000000005 4.596999999999753C2231.7300000000005 4.777999999999338 2231.714 4.956999999999425 2231.6900000000005 5.081999999999425H2228.289C2228.3500000000004 6.151999999999134 2229.004 6.845999999999549 2229.9670000000006 6.845999999999549C2230.451 6.845999999999549 2230.8500000000004 6.6899999999996 2231.224 6.4429999999993015L2231.5310000000004 7.003999999998996C2231.0880000000006 7.2939999999989595 2230.55 7.527999999999338 2229.8630000000003 7.527999999999338C2228.5160000000005 7.527000000000044 2227.443 6.542999999999665 2227.443 4.8840000000000146ZM2230.9750000000004 4.470000000000255C2230.9750000000004 3.4580000000005384 2230.5200000000004 2.9080000000003565 2229.7300000000005 2.9080000000003565C2229.0200000000004 2.9080000000003565 2228.385 3.4780000000000655 2228.282 4.470000000000255H2230.9750000000004Z "></path>
				<path fill="#E52421" d="M2232.799 3.132999999999811C2232.799 2.7399999999997817 2233.078 2.4729999999999563 2233.4179999999997 2.4729999999999563S2234.037 2.7409999999999854 2234.037 3.132999999999811C2234.037 3.51299999999992 2233.758 3.7799999999997453 2233.4179999999997 3.7799999999997453S2232.799 3.5119999999997162 2232.799 3.132999999999811ZM2232.799 6.880000000000109C2232.799 6.48700000000008 2233.078 6.220000000000255 2233.4179999999997 6.220000000000255S2234.037 6.488000000000284 2234.037 6.880000000000109C2234.037 7.2590000000000146 2233.758 7.527000000000044 2233.4179999999997 7.527000000000044S2232.799 7.2590000000000146 2232.799 6.880000000000109Z "></path>
				<path fill="#E52421" d="M2235.6430000000005 0.5820000000003347H2237.6670000000004C2239.0550000000003 0.5820000000003347 2240.014 1.0540000000000873 2240.014 2.253000000000611C2240.014 2.9270000000005894 2239.6550000000007 3.5250000000005457 2239.0170000000003 3.7330000000001746V3.7750000000005457C2239.8320000000003 3.9350000000004 2240.405 4.47400000000016 2240.405 5.407000000000153C2240.405 6.747000000000298 2239.3430000000003 7.402000000000044 2237.8230000000003 7.402000000000044H2235.643V0.5820000000003347ZM2237.5210000000006 3.4840000000003783C2238.6810000000005 3.4840000000003783 2239.1620000000003 3.0560000000004948 2239.1620000000003 2.365000000000691C2239.1620000000003 1.5680000000011205 2238.6160000000004 1.2710000000006403 2237.5610000000006 1.2710000000006403H2236.5110000000004V3.4840000000003783L2237.5210000000006 3.4840000000003783L2237.5210000000006 3.4840000000003783ZM2237.6990000000005 6.713999999999942C2238.8650000000007 6.713999999999942 2239.553000000001 6.293999999999869 2239.553000000001 5.373999999999796C2239.553000000001 4.533999999999651 2238.8920000000007 4.149999999999636 2237.6990000000005 4.149999999999636H2236.5110000000004V6.712999999999738L2237.6990000000005 6.713999999999942L2237.6990000000005 6.713999999999942Z "></path>
				<path fill="#E52421" d="M2241.7570000000005 0.5820000000003347H2243.8940000000002C2245.2830000000004 0.5820000000003347 2246.2800000000007 1.081000000000131 2246.2800000000007 2.5020000000004075C2246.2800000000007 3.8640000000004875 2245.2830000000004 4.520000000000437 2243.8940000000002 4.520000000000437H2242.6250000000005V7.403000000000247H2241.7570000000005L2241.7570000000005 0.5820000000003347L2241.7570000000005 0.5820000000003347ZM2243.7680000000005 3.8149999999996C2244.8300000000004 3.8149999999996 2245.4140000000007 3.384999999999309 2245.4140000000007 2.501999999999498C2245.4140000000007 1.6049999999995634 2244.8300000000004 1.2859999999991487 2243.7680000000005 1.2859999999991487H2242.6240000000007V3.8149999999996H2243.7680000000005ZM2243.7220000000007 4.282000000000153L2244.4030000000002 3.8330000000005384L2246.4840000000004 7.402000000000953H2245.5000000000005L2243.7220000000007 4.282000000000153Z "></path>
				<path fill="#E52421" d="M2251.9770000000003 2.96100000000024C2251.9770000000003 2.61200000000008 2252.005 2.0390000000006694 2252.0260000000003 1.6909999999998035H2251.9850000000006C2251.818 2.0059999999994034 2251.6310000000003 2.295999999999367 2251.4440000000004 2.6260000000002037L2249.8960000000006 4.891999999999825H2253.6890000000003V5.572999999999411H2249.001V5.008999999999105L2251.8370000000004 0.7769999999991342H2252.786V7.403999999999542H2251.9770000000003V2.96100000000024Z "></path>
				<path fill="#E52421" d="M2254.4440000000004 4.064000000000306C2254.4440000000004 1.8410000000003492 2255.2450000000003 0.6500000000005457 2256.568 0.6500000000005457C2257.8920000000007 0.6500000000005457 2258.6920000000005 1.8450000000002547 2258.6920000000005 4.064000000000306C2258.6920000000005 6.286000000000058 2257.8920000000007 7.527000000000044 2256.568 7.527000000000044C2255.2450000000003 7.527000000000044 2254.4440000000004 6.286000000000058 2254.4440000000004 4.064000000000306ZM2257.8630000000003 4.064000000000306C2257.8630000000003 2.1210000000000946 2257.339000000001 1.3380000000006476 2256.568 1.3380000000006476C2255.7980000000007 1.3380000000006476 2255.2740000000003 2.1200000000008004 2255.2740000000003 4.064000000000306C2255.2740000000003 6.006000000000313 2255.7980000000002 6.838000000000648 2256.568 6.838000000000648C2257.3390000000004 6.838999999999942 2257.8630000000003 6.006999999999607 2257.8630000000003 4.064000000000306Z "></path>
				<path fill="#E52421" d="M2259.427 6.5919999999996435L2259.857 6.033999999999651C2260.255 6.447999999999411 2260.773 6.8149999999996 2261.549 6.8149999999996C2262.3540000000003 6.8149999999996 2262.925 6.344000000000051 2262.925 5.599999999999454C2262.925 4.812999999999192 2262.3830000000003 4.285999999999149 2260.811 4.285999999999149V3.6299999999991996C2262.214 3.6299999999991996 2262.692 3.089999999999236 2262.692 2.3959999999988213C2262.692 1.7509999999983847 2262.2490000000003 1.3469999999988431 2261.5460000000003 1.3469999999988431C2260.991 1.3469999999988431 2260.5220000000004 1.6249999999990905 2260.1320000000005 2.018999999998414L2259.6720000000005 1.4759999999987485C2260.1850000000004 1.0009999999983847 2260.7920000000004 0.6509999999989304 2261.576 0.6509999999989304C2262.728 0.6509999999989304 2263.558 1.2629999999990105 2263.558 2.333999999998923C2263.558 3.1319999999986976 2263.0740000000005 3.6429999999991196 2262.3540000000003 3.9079999999985375V3.9499999999989086C2263.155 4.138999999999214 2263.7920000000004 4.723999999999251 2263.7920000000004 5.634999999999309C2263.7920000000004 6.815999999998894 2262.8170000000005 7.528999999999542 2261.6040000000003 7.528999999999542C2260.541 7.527000000000044 2259.8730000000005 7.082000000000335 2259.427 6.5919999999996435Z "></path>
				<path fill="#E52421" d="M2264.733 6.895999999999731C2266.725 4.9099999999998545 2267.852 3.7159999999994398 2267.852 2.6390000000001237C2267.852 1.8820000000005166 2267.441 1.3460000000004584 2266.595 1.3460000000004584C2266.04 1.3460000000004584 2265.563 1.6970000000001164 2265.1859999999997 2.1400000000003274L2264.6899999999996 1.6570000000001528C2265.2439999999997 1.0489999999999782 2265.8409999999994 0.6500000000005457 2266.7 0.6500000000005457C2267.9259999999995 0.6500000000005457 2268.6889999999994 1.423000000000684 2268.6889999999994 2.6010000000005675C2268.6889999999994 3.8450000000002547 2267.5469999999996 5.080000000000837 2265.9839999999995 6.72400000000016C2266.3419999999996 6.695999999999913 2266.7549999999997 6.667000000000371 2267.098 6.667000000000371H2269.0139999999997V7.401000000000749H2264.7329999999997L2264.733 6.895999999999731L2264.733 6.895999999999731Z "></path>
				<path fill="#E52421" d="M2272.058 8.666000000000167C2272.6440000000002 8.40900000000056 2272.9970000000003 7.949000000000524 2272.9939999999997 7.3770000000004075L2272.902 6.609000000000378L2273.3199999999997 7.233000000000175C2273.2069999999994 7.371000000000095 2273.0509999999995 7.411000000000058 2272.888 7.411000000000058C2272.558 7.411000000000058 2272.269 7.2020000000002256 2272.269 6.815000000000509C2272.269 6.443000000000211 2272.563 6.21900000000096 2272.903 6.21900000000096C2273.357 6.21900000000096 2273.629 6.598000000000866 2273.629 7.222000000000662C2273.629 8.1200000000008 2273.1059999999998 8.819000000000415 2272.268 9.167000000000371L2272.058 8.666000000000167Z "></path>
				<path fill="#E52421" d="M2274.5930000000003 6.514000000000124L2275.1130000000003 5.918000000000575C2275.6040000000003 6.428000000000793 2276.286 6.7630000000008295 2276.9940000000006 6.7630000000008295C2277.8900000000003 6.7630000000008295 2278.42 6.3180000000011205 2278.42 5.655000000000655C2278.42 4.959000000000742 2277.9270000000006 4.7370000000009895 2277.282 4.4560000000010405L2276.3030000000003 4.023000000001048C2275.6680000000006 3.752000000001317 2274.9220000000005 3.270000000001346 2274.9220000000005 2.267000000000735C2274.9220000000005 1.2250000000003638 2275.83 0.4570000000003347 2277.0690000000004 0.4570000000003347C2277.8770000000004 0.4570000000003347 2278.597 0.8070000000006985 2279.077 1.3020000000005894L2278.617 1.860000000000582C2278.1990000000005 1.4650000000001455 2277.6990000000005 1.2200000000002547 2277.0690000000004 1.2200000000002547C2276.303 1.2200000000002547 2275.7980000000002 1.6060000000006767 2275.7980000000002 2.2160000000003492C2275.7980000000002 2.8720000000002983 2276.393 3.118000000000393 2276.927 3.344000000000051L2277.8990000000003 3.7650000000003274C2278.688 4.104000000000269 2279.304 4.575000000000728 2279.304 5.588000000000648C2279.304 6.665000000000873 2278.413 7.526000000000749 2276.98 7.526000000000749C2276.021 7.527000000000044 2275.188 7.136999999999716 2274.5930000000003 6.514000000000124Z "></path>
				<path fill="#E52421" d="M2280.4030000000002 0.761000000000422C2280.4030000000002 0.4250000000001819 2280.661 0.20900000000074215 2280.9930000000004 0.20900000000074215S2281.584 0.4250000000010914 2281.584 0.761000000000422C2281.584 1.0830000000005384 2281.325 1.3130000000001019 2280.9930000000004 1.3130000000001019S2280.4030000000002 1.082999999999629 2280.4030000000002 0.761000000000422ZM2280.5600000000004 2.350999999999658H2281.414V7.402000000000044H2280.5600000000004V2.350999999999658Z "></path>
				<path fill="#E52421" d="M2282.588 6.944999999999709L2285.246 3.0479999999997744H2282.883V2.3519999999998618H2286.327V2.8079999999999927L2283.669 6.706000000000131H2286.415V7.402000000000044H2282.588L2282.588 6.944999999999709L2282.588 6.944999999999709Z "></path>
				<path fill="#E52421" d="M2287.0560000000005 4.8840000000000146C2287.0560000000005 3.238999999999578 2288.1640000000007 2.2269999999998618 2289.327 2.2269999999998618C2290.6150000000007 2.2269999999998618 2291.3430000000008 3.1520000000000437 2291.3430000000008 4.596999999999753C2291.3430000000008 4.777999999999338 2291.327 4.956999999999425 2291.303000000001 5.081999999999425H2287.9020000000005C2287.9630000000006 6.151999999999134 2288.617 6.845999999999549 2289.580000000001 6.845999999999549C2290.0640000000003 6.845999999999549 2290.4630000000006 6.6899999999996 2290.8370000000004 6.4429999999993015L2291.1440000000007 7.003999999998996C2290.701000000001 7.2939999999989595 2290.1630000000005 7.527999999999338 2289.4760000000006 7.527999999999338C2288.1280000000006 7.527000000000044 2287.0560000000005 6.542999999999665 2287.0560000000005 4.8840000000000146ZM2290.5870000000004 4.470000000000255C2290.5870000000004 3.4580000000005384 2290.1320000000005 2.9080000000003565 2289.3420000000006 2.9080000000003565C2288.6320000000005 2.9080000000003565 2287.9970000000003 3.4780000000000655 2287.8940000000002 4.470000000000255H2290.5870000000004Z "></path>
				<path fill="#E52421" d="M2294.2270000000008 6.895999999999731C2296.2190000000005 4.9099999999998545 2297.3460000000005 3.7159999999994398 2297.3460000000005 2.6390000000001237C2297.3460000000005 1.8820000000005166 2296.9350000000004 1.3460000000004584 2296.0890000000004 1.3460000000004584C2295.5340000000006 1.3460000000004584 2295.0570000000007 1.6970000000001164 2294.6800000000003 2.1400000000003274L2294.184 1.6570000000001528C2294.7380000000003 1.0489999999999782 2295.335 0.6500000000005457 2296.1940000000004 0.6500000000005457C2297.42 0.6500000000005457 2298.183 1.423000000000684 2298.183 2.6010000000005675C2298.183 3.8450000000002547 2297.041 5.080000000000837 2295.478 6.72400000000016C2295.8360000000002 6.695999999999913 2296.2490000000003 6.667000000000371 2296.5920000000006 6.667000000000371H2298.5080000000003V7.401000000000749H2294.2270000000003L2294.2270000000008 6.895999999999731L2294.2270000000008 6.895999999999731Z "></path>
				<path fill="#E52421" d="M2301.1240000000003 3.8789999999999054L2299.2690000000002 0.5820000000003347H2300.2260000000006L2301.1560000000004 2.3270000000002256C2301.3280000000004 2.6390000000001237 2301.4730000000004 2.9210000000002765 2301.6870000000004 3.318000000000211H2301.728C2301.914 2.9210000000002765 2302.045 2.6390000000001237 2302.2090000000003 2.3270000000002256L2303.116 0.5820000000003347H2304.03L2302.174 3.923000000000684L2304.1600000000003 7.402000000000953H2303.202L2302.202 5.566000000000713C2302.023 5.2260000000005675 2301.838 4.885000000001128 2301.619 4.470000000001164H2301.5780000000004C2301.38 4.885000000001128 2301.2080000000005 5.226000000001477 2301.036 5.566000000000713L2300.0520000000006 7.402000000000953H2299.1380000000004L2301.1240000000003 3.8789999999999054Z "></path>
				<path fill="#E52421" d="M2305.246 0.5820000000003347H2306.114V6.668000000000575H2309.0910000000003V7.402000000000953H2305.246L2305.246 0.5820000000003347L2305.246 0.5820000000003347Z "></path>
			</g>
		</g>
	</g><g id="Elastic_Band_1_3">
		
			<rect id="Elastic_Band_Outline_6__3" x="2330.8" y="0.5720000000001164" fill="none" stroke="#000000" stroke-miterlimit="10" width="1165.4" height="141.732"></rect>
		<rect id="Base_63__3" x="2330.8" y="0.5720000000001164" fill="#211E1B" width="1165.4" height="141.732"></rect>
		<path id="C4_55__3" fill="#454340" d="M2630.4890000000005 142.3040000000001H2422.8300000000004H2330.8010000000004V61.472999999999956L2407.8110000000006 0.5709999999999127H2796.8820000000005L2630.4890000000005 142.3040000000001ZM3244.304 0.5709999999999127H2878.889L2712.496 142.30299999999988H3077.911L3244.304 0.5709999999999127Z "></path>
		<g id="Elastic_Band_1_1extra_3">
			<g>
				<path fill="#E52421" d="M3375.5620000000004 3.9979999999995925C3375.5620000000004 1.7989999999999782 3376.8580000000006 0.4579999999996289 3378.588 0.4579999999996289C3379.4160000000006 0.4579999999996289 3380.0650000000005 0.8599999999996726 3380.4640000000004 1.2989999999999782L3379.9880000000003 1.863999999999578C3379.6290000000004 1.4809999999997672 3379.1780000000003 1.2199999999993452 3378.6030000000005 1.2199999999993452C3377.3140000000003 1.2199999999993452 3376.4570000000003 2.2759999999989304 3376.4570000000003 3.9749999999994543C3376.4570000000003 5.688999999999396 3377.275 6.7629999999990105 3378.5680000000007 6.7629999999990105C3379.2180000000003 6.7629999999990105 3379.7140000000004 6.479999999998654 3380.1490000000003 5.996999999999389L3380.6250000000005 6.541999999999462C3380.0860000000007 7.166999999999462 3379.418 7.52599999999984 3378.5320000000006 7.52599999999984C3376.8350000000005 7.527000000000044 3375.5620000000004 6.212999999999738 3375.5620000000004 3.9979999999995925Z "></path>
				<path fill="#E52421" d="M3381.4390000000003 4.8840000000000146C3381.4390000000003 3.19800000000032 3382.5420000000004 2.2269999999998618 3383.78 2.2269999999998618S3386.121 3.1989999999996144 3386.121 4.8840000000000146C3386.121 6.555999999999585 3385.018 7.528000000000247 3383.78 7.528000000000247S3381.4390000000003 6.555000000000291 3381.4390000000003 4.8840000000000146ZM3385.2380000000003 4.8840000000000146C3385.2380000000003 3.725999999999658 3384.6490000000003 2.9390000000003056 3383.78 2.9390000000003056C3382.9120000000003 2.9390000000003056 3382.323 3.7260000000005675 3382.323 4.8840000000000146C3382.323 6.041000000000167 3382.912 6.8159999999998035 3383.78 6.8159999999998035C3384.6490000000003 6.8149999999996 3385.2380000000003 6.041000000000167 3385.2380000000003 4.8840000000000146Z "></path>
				<path fill="#E52421" d="M3387.0890000000004 4.8840000000000146C3387.0890000000004 3.244999999999891 3388.1230000000005 2.2269999999998618 3389.275 2.2269999999998618C3389.8630000000003 2.2269999999998618 3390.248 2.4479999999994106 3390.6910000000003 2.811999999999898L3390.655 1.9459999999999127V0H3391.5090000000005V7.403000000000247H3390.8030000000003L3390.731 6.806000000000495H3390.7030000000004C3390.3100000000004 7.200000000000728 3389.7720000000004 7.528000000000247 3389.1700000000005 7.528000000000247C3387.9080000000004 7.527000000000044 3387.0890000000004 6.5659999999998035 3387.0890000000004 4.8840000000000146ZM3390.655 6.118000000000393V3.4710000000004584C3390.2230000000004 3.087000000000444 3389.8350000000005 2.946000000000822 3389.4230000000002 2.946000000000822C3388.6150000000002 2.946000000000822 3387.9730000000004 3.7250000000012733 3387.9730000000004 4.8770000000004075C3387.9730000000004 6.088000000000648 3388.475 6.8090000000001965 3389.36 6.8090000000001965C3389.8260000000005 6.806999999999789 3390.231 6.579999999999927 3390.655 6.118000000000393Z "></path>
				<path fill="#E52421" d="M3392.8430000000003 4.8840000000000146C3392.8430000000003 3.238999999999578 3393.9510000000005 2.2269999999998618 3395.114 2.2269999999998618C3396.4020000000005 2.2269999999998618 3397.1300000000006 3.1520000000000437 3397.1300000000006 4.596999999999753C3397.1300000000006 4.777999999999338 3397.114 4.956999999999425 3397.0900000000006 5.081999999999425H3393.6890000000003C3393.7500000000005 6.151999999999134 3394.404 6.845999999999549 3395.3670000000006 6.845999999999549C3395.851 6.845999999999549 3396.2500000000005 6.6899999999996 3396.6240000000003 6.4429999999993015L3396.9310000000005 7.003999999998996C3396.4880000000007 7.2939999999989595 3395.9500000000003 7.527999999999338 3395.2630000000004 7.527999999999338C3393.9160000000006 7.527000000000044 3392.8430000000003 6.542999999999665 3392.8430000000003 4.8840000000000146ZM3396.3750000000005 4.470000000000255C3396.3750000000005 3.4580000000005384 3395.9200000000005 2.9080000000003565 3395.1300000000006 2.9080000000003565C3394.4200000000005 2.9080000000003565 3393.7850000000003 3.4780000000000655 3393.6820000000002 4.470000000000255H3396.3750000000005Z "></path>
				<path fill="#E52421" d="M3398.199 3.132999999999811C3398.199 2.7399999999997817 3398.478 2.4729999999999563 3398.8179999999998 2.4729999999999563S3399.437 2.7409999999999854 3399.437 3.132999999999811C3399.437 3.51299999999992 3399.158 3.7799999999997453 3398.8179999999998 3.7799999999997453S3398.199 3.5119999999997162 3398.199 3.132999999999811ZM3398.199 6.880000000000109C3398.199 6.48700000000008 3398.478 6.220000000000255 3398.8179999999998 6.220000000000255S3399.437 6.488000000000284 3399.437 6.880000000000109C3399.437 7.2590000000000146 3399.158 7.527000000000044 3398.8179999999998 7.527000000000044S3398.199 7.2590000000000146 3398.199 6.880000000000109Z "></path>
				<path fill="#E52421" d="M3401.0430000000006 0.5820000000003347H3403.0670000000005C3404.4550000000004 0.5820000000003347 3405.414 1.0540000000000873 3405.414 2.253000000000611C3405.414 2.9270000000005894 3405.0550000000007 3.5250000000005457 3404.4170000000004 3.7330000000001746V3.7750000000005457C3405.2320000000004 3.9350000000004 3405.8050000000003 4.47400000000016 3405.8050000000003 5.407000000000153C3405.8050000000003 6.747000000000298 3404.7430000000004 7.402000000000044 3403.2230000000004 7.402000000000044H3401.043V0.5820000000003347ZM3402.9210000000007 3.4840000000003783C3404.0810000000006 3.4840000000003783 3404.5620000000004 3.0560000000004948 3404.5620000000004 2.365000000000691C3404.5620000000004 1.5680000000011205 3404.0160000000005 1.2710000000006403 3402.9610000000007 1.2710000000006403H3401.9110000000005V3.4840000000003783L3402.9210000000007 3.4840000000003783L3402.9210000000007 3.4840000000003783ZM3403.0990000000006 6.713999999999942C3404.265000000001 6.713999999999942 3404.953000000001 6.293999999999869 3404.953000000001 5.373999999999796C3404.953000000001 4.533999999999651 3404.292000000001 4.149999999999636 3403.0990000000006 4.149999999999636H3401.9110000000005V6.712999999999738L3403.0990000000006 6.713999999999942L3403.0990000000006 6.713999999999942Z "></path>
				<path fill="#E52421" d="M3407.1570000000006 0.5820000000003347H3409.2940000000003C3410.6830000000004 0.5820000000003347 3411.6800000000007 1.081000000000131 3411.6800000000007 2.5020000000004075C3411.6800000000007 3.8640000000004875 3410.6830000000004 4.520000000000437 3409.2940000000003 4.520000000000437H3408.0250000000005V7.403000000000247H3407.1570000000006L3407.1570000000006 0.5820000000003347L3407.1570000000006 0.5820000000003347ZM3409.1680000000006 3.8149999999996C3410.2300000000005 3.8149999999996 3410.8140000000008 3.384999999999309 3410.8140000000008 2.501999999999498C3410.8140000000008 1.6049999999995634 3410.2300000000005 1.2859999999991487 3409.1680000000006 1.2859999999991487H3408.024000000001V3.8149999999996H3409.1680000000006ZM3409.1220000000008 4.282000000000153L3409.8030000000003 3.8330000000005384L3411.8840000000005 7.402000000000953H3410.9000000000005L3409.1220000000008 4.282000000000153Z "></path>
				<path fill="#E52421" d="M3417.3770000000004 2.96100000000024C3417.3770000000004 2.61200000000008 3417.405 2.0390000000006694 3417.4260000000004 1.6909999999998035H3417.3850000000007C3417.2180000000003 2.0059999999994034 3417.0310000000004 2.295999999999367 3416.8440000000005 2.6260000000002037L3415.2960000000007 4.891999999999825H3419.0890000000004V5.572999999999411H3414.4010000000003V5.008999999999105L3417.2370000000005 0.7769999999991342H3418.186V7.403999999999542H3417.3770000000004V2.96100000000024Z "></path>
				<path fill="#E52421" d="M3419.8440000000005 4.064000000000306C3419.8440000000005 1.8410000000003492 3420.6450000000004 0.6500000000005457 3421.9680000000003 0.6500000000005457C3423.292000000001 0.6500000000005457 3424.0920000000006 1.8450000000002547 3424.0920000000006 4.064000000000306C3424.0920000000006 6.286000000000058 3423.292000000001 7.527000000000044 3421.9680000000003 7.527000000000044C3420.6450000000004 7.527000000000044 3419.8440000000005 6.286000000000058 3419.8440000000005 4.064000000000306ZM3423.2630000000004 4.064000000000306C3423.2630000000004 2.1210000000000946 3422.739000000001 1.3380000000006476 3421.9680000000003 1.3380000000006476C3421.198000000001 1.3380000000006476 3420.6740000000004 2.1200000000008004 3420.6740000000004 4.064000000000306C3420.6740000000004 6.006000000000313 3421.1980000000003 6.838000000000648 3421.9680000000003 6.838000000000648C3422.7390000000005 6.838999999999942 3423.2630000000004 6.006999999999607 3423.2630000000004 4.064000000000306Z "></path>
				<path fill="#E52421" d="M3424.827 6.5919999999996435L3425.257 6.033999999999651C3425.655 6.447999999999411 3426.1730000000002 6.8149999999996 3426.949 6.8149999999996C3427.7540000000004 6.8149999999996 3428.3250000000003 6.344000000000051 3428.3250000000003 5.599999999999454C3428.3250000000003 4.812999999999192 3427.7830000000004 4.285999999999149 3426.2110000000002 4.285999999999149V3.6299999999991996C3427.614 3.6299999999991996 3428.092 3.089999999999236 3428.092 2.3959999999988213C3428.092 1.7509999999983847 3427.6490000000003 1.3469999999988431 3426.9460000000004 1.3469999999988431C3426.391 1.3469999999988431 3425.9220000000005 1.6249999999990905 3425.5320000000006 2.018999999998414L3425.0720000000006 1.4759999999987485C3425.5850000000005 1.0009999999983847 3426.1920000000005 0.6509999999989304 3426.976 0.6509999999989304C3428.128 0.6509999999989304 3428.958 1.2629999999990105 3428.958 2.333999999998923C3428.958 3.1319999999986976 3428.4740000000006 3.6429999999991196 3427.7540000000004 3.9079999999985375V3.9499999999989086C3428.5550000000003 4.138999999999214 3429.1920000000005 4.723999999999251 3429.1920000000005 5.634999999999309C3429.1920000000005 6.815999999998894 3428.2170000000006 7.528999999999542 3427.0040000000004 7.528999999999542C3425.9410000000003 7.527000000000044 3425.2730000000006 7.082000000000335 3424.827 6.5919999999996435Z "></path>
				<path fill="#E52421" d="M3430.1330000000003 6.895999999999731C3432.125 4.9099999999998545 3433.252 3.7159999999994398 3433.252 2.6390000000001237C3433.252 1.8820000000005166 3432.841 1.3460000000004584 3431.995 1.3460000000004584C3431.44 1.3460000000004584 3430.963 1.6970000000001164 3430.586 2.1400000000003274L3430.0899999999997 1.6570000000001528C3430.644 1.0489999999999782 3431.2409999999995 0.6500000000005457 3432.1 0.6500000000005457C3433.3259999999996 0.6500000000005457 3434.0889999999995 1.423000000000684 3434.0889999999995 2.6010000000005675C3434.0889999999995 3.8450000000002547 3432.9469999999997 5.080000000000837 3431.3839999999996 6.72400000000016C3431.7419999999997 6.695999999999913 3432.1549999999997 6.667000000000371 3432.498 6.667000000000371H3434.4139999999998V7.401000000000749H3430.133L3430.1330000000003 6.895999999999731L3430.1330000000003 6.895999999999731Z "></path>
				<path fill="#E52421" d="M3437.458 8.666000000000167C3438.0440000000003 8.40900000000056 3438.3970000000004 7.949000000000524 3438.394 7.3770000000004075L3438.302 6.609000000000378L3438.72 7.233000000000175C3438.6069999999995 7.371000000000095 3438.4509999999996 7.411000000000058 3438.288 7.411000000000058C3437.958 7.411000000000058 3437.669 7.2020000000002256 3437.669 6.815000000000509C3437.669 6.443000000000211 3437.963 6.21900000000096 3438.303 6.21900000000096C3438.757 6.21900000000096 3439.029 6.598000000000866 3439.029 7.222000000000662C3439.029 8.1200000000008 3438.506 8.819000000000415 3437.668 9.167000000000371L3437.458 8.666000000000167Z "></path>
				<path fill="#E52421" d="M3439.9930000000004 6.514000000000124L3440.5130000000004 5.918000000000575C3441.0040000000004 6.428000000000793 3441.686 6.7630000000008295 3442.3940000000007 6.7630000000008295C3443.2900000000004 6.7630000000008295 3443.82 6.3180000000011205 3443.82 5.655000000000655C3443.82 4.959000000000742 3443.3270000000007 4.7370000000009895 3442.6820000000002 4.4560000000010405L3441.7030000000004 4.023000000001048C3441.0680000000007 3.752000000001317 3440.3220000000006 3.270000000001346 3440.3220000000006 2.267000000000735C3440.3220000000006 1.2250000000003638 3441.23 0.4570000000003347 3442.4690000000005 0.4570000000003347C3443.2770000000005 0.4570000000003347 3443.9970000000003 0.8070000000006985 3444.4770000000003 1.3020000000005894L3444.0170000000003 1.860000000000582C3443.5990000000006 1.4650000000001455 3443.0990000000006 1.2200000000002547 3442.4690000000005 1.2200000000002547C3441.703 1.2200000000002547 3441.1980000000003 1.6060000000006767 3441.1980000000003 2.2160000000003492C3441.1980000000003 2.8720000000002983 3441.793 3.118000000000393 3442.327 3.344000000000051L3443.2990000000004 3.7650000000003274C3444.088 4.104000000000269 3444.704 4.575000000000728 3444.704 5.588000000000648C3444.704 6.665000000000873 3443.813 7.526000000000749 3442.38 7.526000000000749C3441.4210000000003 7.527000000000044 3440.588 7.136999999999716 3439.9930000000004 6.514000000000124Z "></path>
				<path fill="#E52421" d="M3445.8030000000003 0.761000000000422C3445.8030000000003 0.4250000000001819 3446.061 0.20900000000074215 3446.3930000000005 0.20900000000074215S3446.984 0.4250000000010914 3446.984 0.761000000000422C3446.984 1.0830000000005384 3446.725 1.3130000000001019 3446.3930000000005 1.3130000000001019S3445.8030000000003 1.082999999999629 3445.8030000000003 0.761000000000422ZM3445.9600000000005 2.350999999999658H3446.8140000000003V7.402000000000044H3445.9600000000005V2.350999999999658Z "></path>
				<path fill="#E52421" d="M3447.9880000000003 6.944999999999709L3450.646 3.0479999999997744H3448.283V2.3519999999998618H3451.7270000000003V2.8079999999999927L3449.069 6.706000000000131H3451.815V7.402000000000044H3447.9880000000003L3447.9880000000003 6.944999999999709L3447.9880000000003 6.944999999999709Z "></path>
				<path fill="#E52421" d="M3452.4560000000006 4.8840000000000146C3452.4560000000006 3.238999999999578 3453.5640000000008 2.2269999999998618 3454.7270000000003 2.2269999999998618C3456.015000000001 2.2269999999998618 3456.743000000001 3.1520000000000437 3456.743000000001 4.596999999999753C3456.743000000001 4.777999999999338 3456.7270000000003 4.956999999999425 3456.703000000001 5.081999999999425H3453.3020000000006C3453.3630000000007 6.151999999999134 3454.0170000000003 6.845999999999549 3454.980000000001 6.845999999999549C3455.4640000000004 6.845999999999549 3455.8630000000007 6.6899999999996 3456.2370000000005 6.4429999999993015L3456.544000000001 7.003999999998996C3456.101000000001 7.2939999999989595 3455.5630000000006 7.527999999999338 3454.8760000000007 7.527999999999338C3453.5280000000007 7.527000000000044 3452.4560000000006 6.542999999999665 3452.4560000000006 4.8840000000000146ZM3455.9870000000005 4.470000000000255C3455.9870000000005 3.4580000000005384 3455.5320000000006 2.9080000000003565 3454.7420000000006 2.9080000000003565C3454.0320000000006 2.9080000000003565 3453.3970000000004 3.4780000000000655 3453.2940000000003 4.470000000000255H3455.9870000000005Z "></path>
				<path fill="#E52421" d="M3459.627000000001 6.895999999999731C3461.6190000000006 4.9099999999998545 3462.7460000000005 3.7159999999994398 3462.7460000000005 2.6390000000001237C3462.7460000000005 1.8820000000005166 3462.3350000000005 1.3460000000004584 3461.4890000000005 1.3460000000004584C3460.9340000000007 1.3460000000004584 3460.457000000001 1.6970000000001164 3460.0800000000004 2.1400000000003274L3459.5840000000003 1.6570000000001528C3460.1380000000004 1.0489999999999782 3460.735 0.6500000000005457 3461.5940000000005 0.6500000000005457C3462.82 0.6500000000005457 3463.583 1.423000000000684 3463.583 2.6010000000005675C3463.583 3.8450000000002547 3462.4410000000003 5.080000000000837 3460.878 6.72400000000016C3461.2360000000003 6.695999999999913 3461.6490000000003 6.667000000000371 3461.9920000000006 6.667000000000371H3463.9080000000004V7.401000000000749H3459.6270000000004L3459.627000000001 6.895999999999731L3459.627000000001 6.895999999999731Z "></path>
				<path fill="#E52421" d="M3466.5240000000003 3.8789999999999054L3464.6690000000003 0.5820000000003347H3465.6260000000007L3466.5560000000005 2.3270000000002256C3466.7280000000005 2.6390000000001237 3466.8730000000005 2.9210000000002765 3467.0870000000004 3.318000000000211H3467.128C3467.3140000000003 2.9210000000002765 3467.445 2.6390000000001237 3467.6090000000004 2.3270000000002256L3468.516 0.5820000000003347H3469.4300000000003L3467.574 3.923000000000684L3469.5600000000004 7.402000000000953H3468.6020000000003L3467.6020000000003 5.566000000000713C3467.4230000000002 5.2260000000005675 3467.2380000000003 4.885000000001128 3467.0190000000002 4.470000000001164H3466.9780000000005C3466.78 4.885000000001128 3466.6080000000006 5.226000000001477 3466.436 5.566000000000713L3465.4520000000007 7.402000000000953H3464.5380000000005L3466.5240000000003 3.8789999999999054Z "></path>
				<path fill="#E52421" d="M3470.646 0.5820000000003347H3471.514V6.668000000000575H3474.4910000000004V7.402000000000953H3470.646L3470.646 0.5820000000003347L3470.646 0.5820000000003347Z "></path>
			</g>
		</g>
	</g><g id="Elastic_Band_1_4">
		
			<rect id="Elastic_Band_Outline_6__4" x="0" y="142.30400000000012" fill="none" stroke="#000000" stroke-miterlimit="10" width="1165.4" height="141.732"></rect>
		<rect id="Base_63__4" x="0" y="142.30400000000012" fill="#211E1B" width="1165.4" height="141.732"></rect>
		<path id="C4_55__4" fill="#454340" d="M299.6890000000003 284.03600000000006H92.0300000000002H0.0010000000002037268V203.20499999999996L77.01100000000042 142.3029999999999H466.08200000000033L299.6890000000003 284.03600000000006ZM913.5039999999999 142.3029999999999H548.0889999999999L381.6959999999999 284.03499999999985H747.1109999999999L913.5039999999999 142.3029999999999Z "></path>
		<g id="Elastic_Band_1_1extra_4">
			<g>
				<path fill="#E52421" d="M1044.7620000000002 145.7299999999996C1044.7620000000002 143.53099999999998 1046.0580000000004 142.18999999999963 1047.788 142.18999999999963C1048.6160000000004 142.18999999999963 1049.2650000000003 142.59199999999967 1049.6640000000002 143.03099999999998L1049.188 143.59599999999958C1048.8290000000002 143.21299999999977 1048.3780000000002 142.95199999999934 1047.8030000000003 142.95199999999934C1046.5140000000001 142.95199999999934 1045.6570000000002 144.00799999999893 1045.6570000000002 145.70699999999945C1045.6570000000002 147.4209999999994 1046.475 148.494999999999 1047.7680000000005 148.494999999999C1048.4180000000001 148.494999999999 1048.9140000000002 148.21199999999865 1049.3490000000002 147.7289999999994L1049.8250000000003 148.27399999999946C1049.2860000000005 148.89899999999946 1048.618 149.25799999999984 1047.7320000000004 149.25799999999984C1046.0350000000003 149.25900000000004 1044.7620000000002 147.94499999999974 1044.7620000000002 145.7299999999996Z "></path>
				<path fill="#E52421" d="M1050.6390000000001 146.616C1050.6390000000001 144.93000000000032 1051.7420000000002 143.95899999999986 1052.98 143.95899999999986S1055.321 144.9309999999996 1055.321 146.616C1055.321 148.28799999999958 1054.2179999999998 149.26000000000025 1052.98 149.26000000000025S1050.6390000000001 148.2870000000003 1050.6390000000001 146.616ZM1054.438 146.616C1054.438 145.45799999999966 1053.8490000000002 144.6710000000003 1052.98 144.6710000000003C1052.112 144.6710000000003 1051.5229999999997 145.45800000000057 1051.5229999999997 146.616C1051.5229999999997 147.77300000000017 1052.1119999999996 148.5479999999998 1052.98 148.5479999999998C1053.8490000000002 148.5469999999996 1054.438 147.77300000000017 1054.438 146.616Z "></path>
				<path fill="#E52421" d="M1056.2890000000002 146.616C1056.2890000000002 144.9769999999999 1057.3230000000003 143.95899999999986 1058.475 143.95899999999986C1059.063 143.95899999999986 1059.4479999999999 144.1799999999994 1059.891 144.5439999999999L1059.855 143.6779999999999V141.732H1060.7090000000003V149.13500000000025H1060.0030000000002L1059.931 148.5380000000005H1059.9030000000002C1059.5100000000002 148.93200000000073 1058.9720000000002 149.26000000000025 1058.3700000000003 149.26000000000025C1057.1080000000002 149.25900000000004 1056.2890000000002 148.2979999999998 1056.2890000000002 146.616ZM1059.855 147.8500000000004V145.20300000000046C1059.4230000000002 144.81900000000044 1059.0350000000003 144.67800000000082 1058.623 144.67800000000082C1057.815 144.67800000000082 1057.1730000000002 145.45700000000127 1057.1730000000002 146.6090000000004C1057.1730000000002 147.82000000000065 1057.6749999999997 148.5410000000002 1058.56 148.5410000000002C1059.0260000000003 148.5389999999998 1059.431 148.31199999999993 1059.855 147.8500000000004Z "></path>
				<path fill="#E52421" d="M1062.0430000000001 146.616C1062.0430000000001 144.97099999999958 1063.1510000000003 143.95899999999986 1064.3139999999999 143.95899999999986C1065.6020000000003 143.95899999999986 1066.3300000000004 144.88400000000004 1066.3300000000004 146.32899999999975C1066.3300000000004 146.50999999999934 1066.3139999999999 146.68899999999942 1066.2900000000004 146.81399999999942H1062.8890000000001C1062.9500000000003 147.88399999999913 1063.6039999999998 148.57799999999955 1064.5670000000005 148.57799999999955C1065.051 148.57799999999955 1065.4500000000003 148.4219999999996 1065.824 148.1749999999993L1066.1310000000003 148.735999999999C1065.6880000000006 149.02599999999896 1065.15 149.25999999999934 1064.4630000000002 149.25999999999934C1063.1160000000004 149.25900000000004 1062.0430000000001 148.27499999999966 1062.0430000000001 146.616ZM1065.5750000000003 146.20200000000025C1065.5750000000003 145.19000000000054 1065.1200000000003 144.64000000000036 1064.3300000000004 144.64000000000036C1063.6200000000003 144.64000000000036 1062.9850000000001 145.21000000000006 1062.882 146.20200000000025H1065.5750000000003Z "></path>
				<path fill="#E52421" d="M1067.399 144.8649999999998C1067.399 144.47199999999978 1067.6779999999999 144.20499999999996 1068.0179999999996 144.20499999999996S1068.6369999999997 144.47299999999998 1068.6369999999997 144.8649999999998C1068.6369999999997 145.24499999999992 1068.3579999999997 145.51199999999974 1068.0179999999996 145.51199999999974S1067.399 145.24399999999972 1067.399 144.8649999999998ZM1067.399 148.6120000000001C1067.399 148.21900000000008 1067.6779999999999 147.95200000000025 1068.0179999999996 147.95200000000025S1068.6369999999997 148.22000000000028 1068.6369999999997 148.6120000000001C1068.6369999999997 148.991 1068.3579999999997 149.25900000000004 1068.0179999999996 149.25900000000004S1067.399 148.991 1067.399 148.6120000000001Z "></path>
				<path fill="#E52421" d="M1070.2430000000004 142.31400000000033H1072.2670000000003C1073.6550000000002 142.31400000000033 1074.614 142.7860000000001 1074.614 143.9850000000006C1074.614 144.6590000000006 1074.2550000000006 145.25700000000055 1073.6170000000002 145.46500000000017V145.50700000000055C1074.4320000000002 145.6670000000004 1075.005 146.20600000000016 1075.005 147.13900000000015C1075.005 148.4790000000003 1073.9430000000002 149.13400000000004 1072.4230000000002 149.13400000000004H1070.243V142.31400000000033ZM1072.1210000000005 145.21600000000038C1073.2810000000004 145.21600000000038 1073.7620000000002 144.7880000000005 1073.7620000000002 144.0970000000007C1073.7620000000002 143.30000000000112 1073.2160000000003 143.00300000000064 1072.1610000000005 143.00300000000064H1071.1110000000003V145.21600000000038L1072.1210000000005 145.21600000000038L1072.1210000000005 145.21600000000038ZM1072.2990000000004 148.44599999999994C1073.4650000000006 148.44599999999994 1074.1530000000007 148.02599999999987 1074.1530000000007 147.1059999999998C1074.1530000000007 146.26599999999965 1073.4920000000006 145.88199999999964 1072.2990000000004 145.88199999999964H1071.1110000000003V148.44499999999974L1072.2990000000004 148.44599999999994L1072.2990000000004 148.44599999999994Z "></path>
				<path fill="#E52421" d="M1076.3570000000004 142.31400000000033H1078.4940000000001C1079.8830000000003 142.31400000000033 1080.8800000000006 142.81300000000013 1080.8800000000006 144.2340000000004C1080.8800000000006 145.5960000000005 1079.8830000000003 146.25200000000044 1078.4940000000001 146.25200000000044H1077.2250000000004V149.13500000000025H1076.3570000000004L1076.3570000000004 142.31400000000033L1076.3570000000004 142.31400000000033ZM1078.3680000000004 145.5469999999996C1079.4300000000003 145.5469999999996 1080.0140000000006 145.1169999999993 1080.0140000000006 144.2339999999995C1080.0140000000006 143.33699999999956 1079.4300000000003 143.01799999999915 1078.3680000000004 143.01799999999915H1077.2240000000006V145.5469999999996H1078.3680000000004ZM1078.3220000000006 146.01400000000015L1079.0030000000002 145.56500000000054L1081.0840000000003 149.13400000000095H1080.1000000000004L1078.3220000000006 146.01400000000015Z "></path>
				<path fill="#E52421" d="M1086.5770000000002 144.69300000000024C1086.5770000000002 144.34400000000008 1086.605 143.77100000000067 1086.6260000000002 143.4229999999998H1086.5850000000005C1086.4180000000001 143.7379999999994 1086.2310000000002 144.02799999999937 1086.0440000000003 144.3580000000002L1084.4960000000005 146.62399999999982H1088.2890000000002V147.3049999999994H1083.601V146.7409999999991L1086.4370000000004 142.50899999999913H1087.386V149.13599999999954H1086.5770000000002V144.69300000000024Z "></path>
				<path fill="#E52421" d="M1089.0440000000003 145.7960000000003C1089.0440000000003 143.57300000000035 1089.8450000000003 142.38200000000055 1091.1680000000001 142.38200000000055C1092.4920000000006 142.38200000000055 1093.2920000000004 143.57700000000025 1093.2920000000004 145.7960000000003C1093.2920000000004 148.01800000000006 1092.4920000000006 149.25900000000004 1091.1680000000001 149.25900000000004C1089.8450000000003 149.25900000000004 1089.0440000000003 148.01800000000006 1089.0440000000003 145.7960000000003ZM1092.4630000000002 145.7960000000003C1092.4630000000002 143.8530000000001 1091.9390000000008 143.07000000000065 1091.1680000000001 143.07000000000065C1090.3980000000006 143.07000000000065 1089.8740000000003 143.8520000000008 1089.8740000000003 145.7960000000003C1089.8740000000003 147.7380000000003 1090.3980000000001 148.57000000000065 1091.1680000000001 148.57000000000065C1091.9390000000003 148.57099999999994 1092.4630000000002 147.7389999999996 1092.4630000000002 145.7960000000003Z "></path>
				<path fill="#E52421" d="M1094.027 148.32399999999964L1094.4569999999999 147.76599999999965C1094.855 148.1799999999994 1095.373 148.5469999999996 1096.149 148.5469999999996C1096.9540000000002 148.5469999999996 1097.525 148.07600000000005 1097.525 147.33199999999945C1097.525 146.5449999999992 1096.9830000000002 146.01799999999915 1095.411 146.01799999999915V145.3619999999992C1096.8139999999999 145.3619999999992 1097.292 144.82199999999924 1097.292 144.12799999999882C1097.292 143.48299999999838 1096.8490000000002 143.07899999999884 1096.1460000000002 143.07899999999884C1095.591 143.07899999999884 1095.1220000000003 143.3569999999991 1094.7320000000004 143.7509999999984L1094.2720000000004 143.20799999999875C1094.7850000000003 142.73299999999838 1095.3920000000003 142.38299999999893 1096.176 142.38299999999893C1097.328 142.38299999999893 1098.158 142.994999999999 1098.158 144.06599999999892C1098.158 144.8639999999987 1097.6740000000004 145.37499999999912 1096.9540000000002 145.63999999999854V145.6819999999989C1097.755 145.8709999999992 1098.3920000000003 146.45599999999925 1098.3920000000003 147.3669999999993C1098.3920000000003 148.5479999999989 1097.4170000000004 149.26099999999954 1096.2040000000002 149.26099999999954C1095.141 149.25900000000004 1094.4730000000004 148.81400000000033 1094.027 148.32399999999964Z "></path>
				<path fill="#E52421" d="M1099.333 148.62799999999973C1101.3249999999998 146.64199999999985 1102.4519999999998 145.44799999999944 1102.4519999999998 144.37100000000012C1102.4519999999998 143.61400000000052 1102.0409999999997 143.07800000000046 1101.1949999999997 143.07800000000046C1100.6399999999999 143.07800000000046 1100.163 143.42900000000012 1099.7859999999996 143.87200000000033L1099.2899999999995 143.38900000000015C1099.8439999999996 142.78099999999998 1100.4409999999993 142.38200000000055 1101.2999999999997 142.38200000000055C1102.5259999999994 142.38200000000055 1103.2889999999993 143.15500000000068 1103.2889999999993 144.33300000000057C1103.2889999999993 145.57700000000025 1102.1469999999995 146.81200000000084 1100.5839999999994 148.45600000000016C1100.9419999999996 148.4279999999999 1101.3549999999996 148.39900000000037 1101.6979999999999 148.39900000000037H1103.6139999999996V149.13300000000075H1099.3329999999996L1099.333 148.62799999999973L1099.333 148.62799999999973Z "></path>
				<path fill="#E52421" d="M1106.658 150.39800000000017C1107.2440000000001 150.14100000000056 1107.5970000000002 149.68100000000052 1107.5939999999996 149.1090000000004L1107.502 148.34100000000038L1107.9199999999996 148.96500000000017C1107.8069999999993 149.1030000000001 1107.6509999999994 149.14300000000006 1107.4879999999998 149.14300000000006C1107.158 149.14300000000006 1106.8689999999997 148.93400000000022 1106.8689999999997 148.5470000000005C1106.8689999999997 148.1750000000002 1107.163 147.95100000000096 1107.5029999999997 147.95100000000096C1107.9569999999999 147.95100000000096 1108.2289999999998 148.33000000000087 1108.2289999999998 148.95400000000066C1108.2289999999998 149.8520000000008 1107.7059999999997 150.5510000000004 1106.868 150.89900000000037L1106.658 150.39800000000017Z "></path>
				<path fill="#E52421" d="M1109.1930000000002 148.24600000000012L1109.7130000000002 147.65000000000057C1110.2040000000002 148.1600000000008 1110.886 148.49500000000083 1111.5940000000005 148.49500000000083C1112.4900000000002 148.49500000000083 1113.02 148.05000000000112 1113.02 147.38700000000065C1113.02 146.69100000000074 1112.5270000000005 146.469000000001 1111.882 146.18800000000104L1110.9030000000002 145.75500000000105C1110.2680000000005 145.48400000000132 1109.5220000000004 145.00200000000135 1109.5220000000004 143.99900000000073C1109.5220000000004 142.95700000000036 1110.4299999999998 142.18900000000033 1111.6690000000003 142.18900000000033C1112.4770000000003 142.18900000000033 1113.1970000000001 142.5390000000007 1113.6770000000001 143.0340000000006L1113.217 143.59200000000058C1112.7990000000004 143.19700000000014 1112.2990000000004 142.95200000000025 1111.6690000000003 142.95200000000025C1110.9029999999998 142.95200000000025 1110.3980000000001 143.33800000000068 1110.3980000000001 143.94800000000035C1110.3980000000001 144.6040000000003 1110.993 144.8500000000004 1111.527 145.07600000000005L1112.4990000000003 145.49700000000033C1113.288 145.83600000000027 1113.904 146.30700000000073 1113.904 147.32000000000065C1113.904 148.39700000000087 1113.013 149.25800000000075 1111.58 149.25800000000075C1110.621 149.25900000000004 1109.788 148.86899999999972 1109.1930000000002 148.24600000000012Z "></path>
				<path fill="#E52421" d="M1115.0030000000002 142.49300000000042C1115.0030000000002 142.15700000000018 1115.261 141.94100000000074 1115.5930000000003 141.94100000000074S1116.1839999999997 142.1570000000011 1116.1839999999997 142.49300000000042C1116.1839999999997 142.81500000000054 1115.9249999999997 143.0450000000001 1115.5930000000003 143.0450000000001S1115.0030000000002 142.81499999999963 1115.0030000000002 142.49300000000042ZM1115.1600000000003 144.08299999999966H1116.0140000000001V149.13400000000004H1115.1600000000003V144.08299999999966Z "></path>
				<path fill="#E52421" d="M1117.188 148.6769999999997L1119.846 144.77999999999977H1117.4829999999997V144.08399999999986H1120.9270000000001V144.54L1118.2689999999998 148.43800000000013H1121.0149999999999V149.13400000000004H1117.188L1117.188 148.6769999999997L1117.188 148.6769999999997Z "></path>
				<path fill="#E52421" d="M1121.6560000000004 146.616C1121.6560000000004 144.97099999999958 1122.7640000000006 143.95899999999986 1123.9270000000001 143.95899999999986C1125.2150000000006 143.95899999999986 1125.9430000000007 144.88400000000004 1125.9430000000007 146.32899999999975C1125.9430000000007 146.50999999999934 1125.9270000000001 146.68899999999942 1125.9030000000007 146.81399999999942H1122.5020000000004C1122.5630000000006 147.88399999999913 1123.217 148.57799999999955 1124.1800000000007 148.57799999999955C1124.6640000000002 148.57799999999955 1125.0630000000006 148.4219999999996 1125.4370000000004 148.1749999999993L1125.7440000000006 148.735999999999C1125.3010000000008 149.02599999999896 1124.7630000000004 149.25999999999934 1124.0760000000005 149.25999999999934C1122.7280000000005 149.25900000000004 1121.6560000000004 148.27499999999966 1121.6560000000004 146.616ZM1125.1870000000004 146.20200000000025C1125.1870000000004 145.19000000000054 1124.7320000000004 144.64000000000036 1123.9420000000005 144.64000000000036C1123.2320000000004 144.64000000000036 1122.5970000000002 145.21000000000006 1122.4940000000001 146.20200000000025H1125.1870000000004Z "></path>
				<path fill="#E52421" d="M1128.8270000000007 148.62799999999973C1130.8190000000004 146.64199999999985 1131.9460000000004 145.44799999999944 1131.9460000000004 144.37100000000012C1131.9460000000004 143.61400000000052 1131.5350000000003 143.07800000000046 1130.6890000000003 143.07800000000046C1130.1340000000005 143.07800000000046 1129.6570000000006 143.42900000000012 1129.2800000000002 143.87200000000033L1128.784 143.38900000000015C1129.3380000000002 142.78099999999998 1129.935 142.38200000000055 1130.7940000000003 142.38200000000055C1132.02 142.38200000000055 1132.783 143.15500000000068 1132.783 144.33300000000057C1132.783 145.57700000000025 1131.641 146.81200000000084 1130.078 148.45600000000016C1130.4360000000001 148.4279999999999 1130.8490000000002 148.39900000000037 1131.1920000000005 148.39900000000037H1133.1080000000002V149.13300000000075H1128.8270000000002L1128.8270000000007 148.62799999999973L1128.8270000000007 148.62799999999973Z "></path>
				<path fill="#E52421" d="M1135.7240000000002 145.6109999999999L1133.8690000000001 142.31400000000033H1134.8260000000005L1135.7560000000003 144.05900000000022C1135.9280000000003 144.37100000000012 1136.0730000000003 144.65300000000028 1136.2870000000003 145.0500000000002H1136.328C1136.5140000000001 144.65300000000028 1136.645 144.37100000000012 1136.8090000000002 144.05900000000022L1137.716 142.31400000000033H1138.63L1136.774 145.65500000000068L1138.7600000000002 149.13400000000095H1137.8020000000001L1136.8020000000001 147.2980000000007C1136.623 146.95800000000057 1136.438 146.61700000000113 1136.219 146.20200000000116H1136.1780000000003C1135.98 146.61700000000113 1135.8080000000004 146.95800000000148 1135.636 147.2980000000007L1134.6520000000005 149.13400000000095H1133.7380000000003L1135.7240000000002 145.6109999999999Z "></path>
				<path fill="#E52421" d="M1139.846 142.31400000000033H1140.714V148.40000000000057H1143.6910000000003V149.13400000000095H1139.846L1139.846 142.31400000000033L1139.846 142.31400000000033Z "></path>
			</g>
		</g>
	</g><g id="Elastic_Band_1_5">
		
			<rect id="Elastic_Band_Outline_6__5" x="1165.4" y="142.30400000000012" fill="none" stroke="#000000" stroke-miterlimit="10" width="1165.4" height="141.732"></rect>
		<rect id="Base_63__5" x="1165.4" y="142.30400000000012" fill="#211E1B" width="1165.4" height="141.732"></rect>
		<path id="C4_55__5" fill="#454340" d="M1465.0890000000004 284.03600000000006H1257.4300000000003H1165.4010000000003V203.20499999999996L1242.4110000000005 142.3029999999999H1631.4820000000004L1465.0890000000004 284.03600000000006ZM2078.904 142.3029999999999H1713.489L1547.096 284.03499999999985H1912.511L2078.904 142.3029999999999Z "></path>
		<g id="Elastic_Band_1_1extra_5">
			<g>
				<path fill="#E52421" d="M2210.1620000000003 145.7299999999996C2210.1620000000003 143.53099999999998 2211.4580000000005 142.18999999999963 2213.188 142.18999999999963C2214.0160000000005 142.18999999999963 2214.6650000000004 142.59199999999967 2215.0640000000003 143.03099999999998L2214.588 143.59599999999958C2214.2290000000003 143.21299999999977 2213.7780000000002 142.95199999999934 2213.2030000000004 142.95199999999934C2211.914 142.95199999999934 2211.0570000000002 144.00799999999893 2211.0570000000002 145.70699999999945C2211.0570000000002 147.4209999999994 2211.875 148.494999999999 2213.1680000000006 148.494999999999C2213.818 148.494999999999 2214.3140000000003 148.21199999999865 2214.7490000000003 147.7289999999994L2215.2250000000004 148.27399999999946C2214.6860000000006 148.89899999999946 2214.018 149.25799999999984 2213.1320000000005 149.25799999999984C2211.4350000000004 149.25900000000004 2210.1620000000003 147.94499999999974 2210.1620000000003 145.7299999999996Z "></path>
				<path fill="#E52421" d="M2216.039 146.616C2216.039 144.93000000000032 2217.1420000000003 143.95899999999986 2218.38 143.95899999999986S2220.721 144.9309999999996 2220.721 146.616C2220.721 148.28799999999958 2219.618 149.26000000000025 2218.38 149.26000000000025S2216.039 148.2870000000003 2216.039 146.616ZM2219.838 146.616C2219.838 145.45799999999966 2219.2490000000003 144.6710000000003 2218.38 144.6710000000003C2217.512 144.6710000000003 2216.923 145.45800000000057 2216.923 146.616C2216.923 147.77300000000017 2217.5119999999997 148.5479999999998 2218.38 148.5479999999998C2219.2490000000003 148.5469999999996 2219.838 147.77300000000017 2219.838 146.616Z "></path>
				<path fill="#E52421" d="M2221.6890000000003 146.616C2221.6890000000003 144.9769999999999 2222.7230000000004 143.95899999999986 2223.875 143.95899999999986C2224.463 143.95899999999986 2224.848 144.1799999999994 2225.291 144.5439999999999L2225.255 143.6779999999999V141.732H2226.1090000000004V149.13500000000025H2225.4030000000002L2225.331 148.5380000000005H2225.3030000000003C2224.9100000000003 148.93200000000073 2224.3720000000003 149.26000000000025 2223.7700000000004 149.26000000000025C2222.5080000000003 149.25900000000004 2221.6890000000003 148.2979999999998 2221.6890000000003 146.616ZM2225.255 147.8500000000004V145.20300000000046C2224.8230000000003 144.81900000000044 2224.4350000000004 144.67800000000082 2224.023 144.67800000000082C2223.215 144.67800000000082 2222.5730000000003 145.45700000000127 2222.5730000000003 146.6090000000004C2222.5730000000003 147.82000000000065 2223.075 148.5410000000002 2223.96 148.5410000000002C2224.4260000000004 148.5389999999998 2224.831 148.31199999999993 2225.255 147.8500000000004Z "></path>
				<path fill="#E52421" d="M2227.443 146.616C2227.443 144.97099999999958 2228.5510000000004 143.95899999999986 2229.714 143.95899999999986C2231.0020000000004 143.95899999999986 2231.7300000000005 144.88400000000004 2231.7300000000005 146.32899999999975C2231.7300000000005 146.50999999999934 2231.714 146.68899999999942 2231.6900000000005 146.81399999999942H2228.289C2228.3500000000004 147.88399999999913 2229.004 148.57799999999955 2229.9670000000006 148.57799999999955C2230.451 148.57799999999955 2230.8500000000004 148.4219999999996 2231.224 148.1749999999993L2231.5310000000004 148.735999999999C2231.0880000000006 149.02599999999896 2230.55 149.25999999999934 2229.8630000000003 149.25999999999934C2228.5160000000005 149.25900000000004 2227.443 148.27499999999966 2227.443 146.616ZM2230.9750000000004 146.20200000000025C2230.9750000000004 145.19000000000054 2230.5200000000004 144.64000000000036 2229.7300000000005 144.64000000000036C2229.0200000000004 144.64000000000036 2228.385 145.21000000000006 2228.282 146.20200000000025H2230.9750000000004Z "></path>
				<path fill="#E52421" d="M2232.799 144.8649999999998C2232.799 144.47199999999978 2233.078 144.20499999999996 2233.4179999999997 144.20499999999996S2234.037 144.47299999999998 2234.037 144.8649999999998C2234.037 145.24499999999992 2233.758 145.51199999999974 2233.4179999999997 145.51199999999974S2232.799 145.24399999999972 2232.799 144.8649999999998ZM2232.799 148.6120000000001C2232.799 148.21900000000008 2233.078 147.95200000000025 2233.4179999999997 147.95200000000025S2234.037 148.22000000000028 2234.037 148.6120000000001C2234.037 148.991 2233.758 149.25900000000004 2233.4179999999997 149.25900000000004S2232.799 148.991 2232.799 148.6120000000001Z "></path>
				<path fill="#E52421" d="M2235.6430000000005 142.31400000000033H2237.6670000000004C2239.0550000000003 142.31400000000033 2240.014 142.7860000000001 2240.014 143.9850000000006C2240.014 144.6590000000006 2239.6550000000007 145.25700000000055 2239.0170000000003 145.46500000000017V145.50700000000055C2239.8320000000003 145.6670000000004 2240.405 146.20600000000016 2240.405 147.13900000000015C2240.405 148.4790000000003 2239.3430000000003 149.13400000000004 2237.8230000000003 149.13400000000004H2235.643V142.31400000000033ZM2237.5210000000006 145.21600000000038C2238.6810000000005 145.21600000000038 2239.1620000000003 144.7880000000005 2239.1620000000003 144.0970000000007C2239.1620000000003 143.30000000000112 2238.6160000000004 143.00300000000064 2237.5610000000006 143.00300000000064H2236.5110000000004V145.21600000000038L2237.5210000000006 145.21600000000038L2237.5210000000006 145.21600000000038ZM2237.6990000000005 148.44599999999994C2238.8650000000007 148.44599999999994 2239.553000000001 148.02599999999987 2239.553000000001 147.1059999999998C2239.553000000001 146.26599999999965 2238.8920000000007 145.88199999999964 2237.6990000000005 145.88199999999964H2236.5110000000004V148.44499999999974L2237.6990000000005 148.44599999999994L2237.6990000000005 148.44599999999994Z "></path>
				<path fill="#E52421" d="M2241.7570000000005 142.31400000000033H2243.8940000000002C2245.2830000000004 142.31400000000033 2246.2800000000007 142.81300000000013 2246.2800000000007 144.2340000000004C2246.2800000000007 145.5960000000005 2245.2830000000004 146.25200000000044 2243.8940000000002 146.25200000000044H2242.6250000000005V149.13500000000025H2241.7570000000005L2241.7570000000005 142.31400000000033L2241.7570000000005 142.31400000000033ZM2243.7680000000005 145.5469999999996C2244.8300000000004 145.5469999999996 2245.4140000000007 145.1169999999993 2245.4140000000007 144.2339999999995C2245.4140000000007 143.33699999999956 2244.8300000000004 143.01799999999915 2243.7680000000005 143.01799999999915H2242.6240000000007V145.5469999999996H2243.7680000000005ZM2243.7220000000007 146.01400000000015L2244.4030000000002 145.56500000000054L2246.4840000000004 149.13400000000095H2245.5000000000005L2243.7220000000007 146.01400000000015Z "></path>
				<path fill="#E52421" d="M2251.9770000000003 144.69300000000024C2251.9770000000003 144.34400000000008 2252.005 143.77100000000067 2252.0260000000003 143.4229999999998H2251.9850000000006C2251.818 143.7379999999994 2251.6310000000003 144.02799999999937 2251.4440000000004 144.3580000000002L2249.8960000000006 146.62399999999982H2253.6890000000003V147.3049999999994H2249.001V146.7409999999991L2251.8370000000004 142.50899999999913H2252.786V149.13599999999954H2251.9770000000003V144.69300000000024Z "></path>
				<path fill="#E52421" d="M2254.4440000000004 145.7960000000003C2254.4440000000004 143.57300000000035 2255.2450000000003 142.38200000000055 2256.568 142.38200000000055C2257.8920000000007 142.38200000000055 2258.6920000000005 143.57700000000025 2258.6920000000005 145.7960000000003C2258.6920000000005 148.01800000000006 2257.8920000000007 149.25900000000004 2256.568 149.25900000000004C2255.2450000000003 149.25900000000004 2254.4440000000004 148.01800000000006 2254.4440000000004 145.7960000000003ZM2257.8630000000003 145.7960000000003C2257.8630000000003 143.8530000000001 2257.339000000001 143.07000000000065 2256.568 143.07000000000065C2255.7980000000007 143.07000000000065 2255.2740000000003 143.8520000000008 2255.2740000000003 145.7960000000003C2255.2740000000003 147.7380000000003 2255.7980000000002 148.57000000000065 2256.568 148.57000000000065C2257.3390000000004 148.57099999999994 2257.8630000000003 147.7389999999996 2257.8630000000003 145.7960000000003Z "></path>
				<path fill="#E52421" d="M2259.427 148.32399999999964L2259.857 147.76599999999965C2260.255 148.1799999999994 2260.773 148.5469999999996 2261.549 148.5469999999996C2262.3540000000003 148.5469999999996 2262.925 148.07600000000005 2262.925 147.33199999999945C2262.925 146.5449999999992 2262.3830000000003 146.01799999999915 2260.811 146.01799999999915V145.3619999999992C2262.214 145.3619999999992 2262.692 144.82199999999924 2262.692 144.12799999999882C2262.692 143.48299999999838 2262.2490000000003 143.07899999999884 2261.5460000000003 143.07899999999884C2260.991 143.07899999999884 2260.5220000000004 143.3569999999991 2260.1320000000005 143.7509999999984L2259.6720000000005 143.20799999999875C2260.1850000000004 142.73299999999838 2260.7920000000004 142.38299999999893 2261.576 142.38299999999893C2262.728 142.38299999999893 2263.558 142.994999999999 2263.558 144.06599999999892C2263.558 144.8639999999987 2263.0740000000005 145.37499999999912 2262.3540000000003 145.63999999999854V145.6819999999989C2263.155 145.8709999999992 2263.7920000000004 146.45599999999925 2263.7920000000004 147.3669999999993C2263.7920000000004 148.5479999999989 2262.8170000000005 149.26099999999954 2261.6040000000003 149.26099999999954C2260.541 149.25900000000004 2259.8730000000005 148.81400000000033 2259.427 148.32399999999964Z "></path>
				<path fill="#E52421" d="M2264.733 148.62799999999973C2266.725 146.64199999999985 2267.852 145.44799999999944 2267.852 144.37100000000012C2267.852 143.61400000000052 2267.441 143.07800000000046 2266.595 143.07800000000046C2266.04 143.07800000000046 2265.563 143.42900000000012 2265.1859999999997 143.87200000000033L2264.6899999999996 143.38900000000015C2265.2439999999997 142.78099999999998 2265.8409999999994 142.38200000000055 2266.7 142.38200000000055C2267.9259999999995 142.38200000000055 2268.6889999999994 143.15500000000068 2268.6889999999994 144.33300000000057C2268.6889999999994 145.57700000000025 2267.5469999999996 146.81200000000084 2265.9839999999995 148.45600000000016C2266.3419999999996 148.4279999999999 2266.7549999999997 148.39900000000037 2267.098 148.39900000000037H2269.0139999999997V149.13300000000075H2264.7329999999997L2264.733 148.62799999999973L2264.733 148.62799999999973Z "></path>
				<path fill="#E52421" d="M2272.058 150.39800000000017C2272.6440000000002 150.14100000000056 2272.9970000000003 149.68100000000052 2272.9939999999997 149.1090000000004L2272.902 148.34100000000038L2273.3199999999997 148.96500000000017C2273.2069999999994 149.1030000000001 2273.0509999999995 149.14300000000006 2272.888 149.14300000000006C2272.558 149.14300000000006 2272.269 148.93400000000022 2272.269 148.5470000000005C2272.269 148.1750000000002 2272.563 147.95100000000096 2272.903 147.95100000000096C2273.357 147.95100000000096 2273.629 148.33000000000087 2273.629 148.95400000000066C2273.629 149.8520000000008 2273.1059999999998 150.5510000000004 2272.268 150.89900000000037L2272.058 150.39800000000017Z "></path>
				<path fill="#E52421" d="M2274.5930000000003 148.24600000000012L2275.1130000000003 147.65000000000057C2275.6040000000003 148.1600000000008 2276.286 148.49500000000083 2276.9940000000006 148.49500000000083C2277.8900000000003 148.49500000000083 2278.42 148.05000000000112 2278.42 147.38700000000065C2278.42 146.69100000000074 2277.9270000000006 146.469000000001 2277.282 146.18800000000104L2276.3030000000003 145.75500000000105C2275.6680000000006 145.48400000000132 2274.9220000000005 145.00200000000135 2274.9220000000005 143.99900000000073C2274.9220000000005 142.95700000000036 2275.83 142.18900000000033 2277.0690000000004 142.18900000000033C2277.8770000000004 142.18900000000033 2278.597 142.5390000000007 2279.077 143.0340000000006L2278.617 143.59200000000058C2278.1990000000005 143.19700000000014 2277.6990000000005 142.95200000000025 2277.0690000000004 142.95200000000025C2276.303 142.95200000000025 2275.7980000000002 143.33800000000068 2275.7980000000002 143.94800000000035C2275.7980000000002 144.6040000000003 2276.393 144.8500000000004 2276.927 145.07600000000005L2277.8990000000003 145.49700000000033C2278.688 145.83600000000027 2279.304 146.30700000000073 2279.304 147.32000000000065C2279.304 148.39700000000087 2278.413 149.25800000000075 2276.98 149.25800000000075C2276.021 149.25900000000004 2275.188 148.86899999999972 2274.5930000000003 148.24600000000012Z "></path>
				<path fill="#E52421" d="M2280.4030000000002 142.49300000000042C2280.4030000000002 142.15700000000018 2280.661 141.94100000000074 2280.9930000000004 141.94100000000074S2281.584 142.1570000000011 2281.584 142.49300000000042C2281.584 142.81500000000054 2281.325 143.0450000000001 2280.9930000000004 143.0450000000001S2280.4030000000002 142.81499999999963 2280.4030000000002 142.49300000000042ZM2280.5600000000004 144.08299999999966H2281.414V149.13400000000004H2280.5600000000004V144.08299999999966Z "></path>
				<path fill="#E52421" d="M2282.588 148.6769999999997L2285.246 144.77999999999977H2282.883V144.08399999999986H2286.327V144.54L2283.669 148.43800000000013H2286.415V149.13400000000004H2282.588L2282.588 148.6769999999997L2282.588 148.6769999999997Z "></path>
				<path fill="#E52421" d="M2287.0560000000005 146.616C2287.0560000000005 144.97099999999958 2288.1640000000007 143.95899999999986 2289.327 143.95899999999986C2290.6150000000007 143.95899999999986 2291.3430000000008 144.88400000000004 2291.3430000000008 146.32899999999975C2291.3430000000008 146.50999999999934 2291.327 146.68899999999942 2291.303000000001 146.81399999999942H2287.9020000000005C2287.9630000000006 147.88399999999913 2288.617 148.57799999999955 2289.580000000001 148.57799999999955C2290.0640000000003 148.57799999999955 2290.4630000000006 148.4219999999996 2290.8370000000004 148.1749999999993L2291.1440000000007 148.735999999999C2290.701000000001 149.02599999999896 2290.1630000000005 149.25999999999934 2289.4760000000006 149.25999999999934C2288.1280000000006 149.25900000000004 2287.0560000000005 148.27499999999966 2287.0560000000005 146.616ZM2290.5870000000004 146.20200000000025C2290.5870000000004 145.19000000000054 2290.1320000000005 144.64000000000036 2289.3420000000006 144.64000000000036C2288.6320000000005 144.64000000000036 2287.9970000000003 145.21000000000006 2287.8940000000002 146.20200000000025H2290.5870000000004Z "></path>
				<path fill="#E52421" d="M2294.2270000000008 148.62799999999973C2296.2190000000005 146.64199999999985 2297.3460000000005 145.44799999999944 2297.3460000000005 144.37100000000012C2297.3460000000005 143.61400000000052 2296.9350000000004 143.07800000000046 2296.0890000000004 143.07800000000046C2295.5340000000006 143.07800000000046 2295.0570000000007 143.42900000000012 2294.6800000000003 143.87200000000033L2294.184 143.38900000000015C2294.7380000000003 142.78099999999998 2295.335 142.38200000000055 2296.1940000000004 142.38200000000055C2297.42 142.38200000000055 2298.183 143.15500000000068 2298.183 144.33300000000057C2298.183 145.57700000000025 2297.041 146.81200000000084 2295.478 148.45600000000016C2295.8360000000002 148.4279999999999 2296.2490000000003 148.39900000000037 2296.5920000000006 148.39900000000037H2298.5080000000003V149.13300000000075H2294.2270000000003L2294.2270000000008 148.62799999999973L2294.2270000000008 148.62799999999973Z "></path>
				<path fill="#E52421" d="M2301.1240000000003 145.6109999999999L2299.2690000000002 142.31400000000033H2300.2260000000006L2301.1560000000004 144.05900000000022C2301.3280000000004 144.37100000000012 2301.4730000000004 144.65300000000028 2301.6870000000004 145.0500000000002H2301.728C2301.914 144.65300000000028 2302.045 144.37100000000012 2302.2090000000003 144.05900000000022L2303.116 142.31400000000033H2304.03L2302.174 145.65500000000068L2304.1600000000003 149.13400000000095H2303.202L2302.202 147.2980000000007C2302.023 146.95800000000057 2301.838 146.61700000000113 2301.619 146.20200000000116H2301.5780000000004C2301.38 146.61700000000113 2301.2080000000005 146.95800000000148 2301.036 147.2980000000007L2300.0520000000006 149.13400000000095H2299.1380000000004L2301.1240000000003 145.6109999999999Z "></path>
				<path fill="#E52421" d="M2305.246 142.31400000000033H2306.114V148.40000000000057H2309.0910000000003V149.13400000000095H2305.246L2305.246 142.31400000000033L2305.246 142.31400000000033Z "></path>
			</g>
		</g>
	</g></svg>