<svg>
    <g id="right_front_panel_outline_1_group">
        <g transform="" id="Right_Front_panel_Outline_1_">
            <polygon
                style="stroke: rgb(0,0,0); stroke-width: 1; stroke-dasharray: none; stroke-linecap: butt; stroke-dashoffset: 0; stroke-linejoin: miter; stroke-miterlimit: 10; fill: none; fill-rule: nonzero; opacity: 1;"
                points="80.72,741.88 110.14,738.56 126.34,737.03 141.63,734.42 157.83,732.9 173.04,731.28 189.24,729.76 204.44,728.15 219.64,726.53 235.75,726 250.96,724.39 267.06,723.86 282.27,722.24 298.38,721.72 313.49,721.1 328.6,720.48 348.69,720.32 368.78,720.15 388.78,720.99 408.78,721.82 428.78,722.66 448.77,723.49 468.77,724.32 489.67,726.24 509.58,728.07 529.49,729.9 549.39,731.73 570.29,733.65 590.2,735.48 610.11,737.31 651.82,742.15 656.74,710.47 658.56,701.6 659.47,691.64 661.38,681.77 663.2,672.9 664.12,662.95 666.03,653.08 666.85,644.12 668.76,634.25 670.67,624.38 671.49,615.42 673.41,605.55 675.22,596.68 677.13,586.82 679.05,576.95 681.32,563.1 683.6,549.25 686.87,535.49 689.15,521.64 692.42,507.89 695.69,494.13 697.97,480.28 701.24,466.52 704.51,452.76 707.78,439 711.06,425.24 714.33,411.49 718.6,397.82 721.87,384.06 726.13,370.39 729.32,357.63 732.4,345.86 736.58,333.19 739.67,321.43 743.84,308.76 746.93,296.99 751.11,284.32 755.19,272.64 759.37,259.97 763.45,248.3 767.54,236.62 771.71,223.95 775.8,212.28 779.97,199.6 785.05,188.02 789.14,176.35 793.22,164.67 798.3,153.09 802.39,141.41 807.47,129.83 811.55,118.15 816.63,106.57 821.71,94.99 826.79,83.4 831.87,71.82 836.95,60.23 842.03,48.65 847.11,37.07 852.19,25.48 858.26,13.99 863.16,4.4 868.15,-6.19 873.13,-16.78 878.12,-27.36 883.11,-37.95 888.1,-48.54 893.09,-59.13 898.07,-69.72 902.07,-80.4 907.15,-91.98 911.14,-102.66 915.22,-114.33 919.22,-125.01 922.3,-136.78 925.39,-148.55 927.12,-156.42 928.94,-165.29 930.67,-173.17 932.49,-182.04 934.21,-189.91 934.95,-197.88 935.77,-206.84 936.5,-214.81 937.33,-223.77 937.06,-231.83 937.89,-240.79 937.63,-248.85 937.45,-257.9 937.19,-265.96 935.93,-274.11 934.86,-284.25 933.69,-293.4 932.52,-302.54 931.36,-311.69 929.19,-320.92 927.03,-330.16 924.87,-339.4 921.62,-347.73 919.46,-356.97 916.21,-365.3 913.05,-374.63 909.8,-382.96 906.64,-392.29 902.4,-400.71 899.15,-409.04 896.62,-414.3 894.09,-419.55 891.57,-424.8 888.04,-430.15 885.51,-435.4 882.89,-439.66 880.37,-444.91 876.84,-450.26 874.31,-455.51 870.7,-459.86 868.17,-465.11 864.55,-469.46 861.03,-474.81 857.42,-479.16 853.89,-484.5 849.37,-489.94 844.95,-496.37 840.43,-501.81 834.91,-507.33 830.39,-512.77 825.88,-518.21 820.36,-523.74 815.84,-529.17 810.33,-534.7 805.72,-539.14 800.2,-544.67 794.6,-549.2 790.08,-554.64 784.56,-560.16 759.61,-583.55 730.43,-539.03 716.38,-517.22 702.33,-495.42 687.29,-473.7 673.33,-452.89 659.28,-431.09 644.14,-408.38 630.19,-387.57 616.05,-364.77 602,-342.96 586.95,-321.25 572.9,-299.44 558.86,-277.64 544.81,-255.83 530.76,-234.03 527.32,-229.32 524.87,-224.53 521.42,-219.82 517.98,-215.12 515.53,-210.32 512.09,-205.61 508.64,-200.91 506.2,-196.11 502.75,-191.41 499.4,-187.7 496.95,-182.9 493.51,-178.2 490.07,-173.5 487.62,-168.7 484.17,-163.99 480.82,-160.29 477.38,-155.58 475.02,-151.78 471.58,-147.08 468.22,-143.37 465.78,-138.57 462.42,-134.86 459.07,-131.15 455.63,-126.45 452.28,-122.74 448.92,-119.03 445.48,-114.33 442.13,-110.62 438.78,-106.91 435.33,-102.21 431.98,-98.5 428.63,-94.79 425.28,-91.08 421.93,-87.37 417.58,-83.75 414.32,-81.04 410.97,-77.33 407.61,-73.62 403.36,-71 400.1,-68.29 395.84,-65.67 392.58,-62.95 388.32,-60.33 385.07,-57.62 380.9,-55.99 377.73,-54.28 374.56,-52.56 370.4,-50.93 367.23,-49.22 364.15,-48.5 359.99,-46.87 356.91,-46.15 352.84,-45.52 349.67,-43.8 345.6,-43.17 341.52,-42.54 337.45,-41.91 334.37,-41.19 330.3,-40.56 326.32,-40.93 323.24,-40.2 320.25,-40.48 317.27,-40.75 314.19,-40.03 311.2,-40.31 308.22,-40.58 305.14,-39.86 302.16,-40.13 299.17,-40.41 295.19,-40.78 292.2,-41.05 289.22,-41.32 286.23,-41.6 282.25,-41.97 283.24,-41.87 285.14,-40.69 282.25,-41.97 279.36,-43.24 277.46,-44.41 275.56,-45.59 272.66,-46.86 270.76,-48.04 267.87,-49.31 265.97,-50.49 264.07,-51.67 262.17,-52.85 259.28,-54.12 257.38,-55.3 255.48,-56.48 253.58,-57.65 251.68,-58.83 249.78,-60.01 247.97,-62.19 247.07,-63.27 245.17,-64.45 243.36,-66.63 241.46,-67.81 239.57,-68.99 237.76,-71.16 235.86,-72.34 235.05,-74.42 233.24,-76.6 231.34,-77.77 230.53,-79.86 228.72,-82.03 226.91,-84.21 225.11,-86.38 223.39,-89.55 221.58,-91.73 219.87,-94.9 218.06,-97.07 216.34,-100.24 214.63,-103.41 212.91,-106.58 211.1,-108.76 209.39,-111.93 208.66,-115.01 206.95,-118.18 205.23,-121.35 204.51,-124.43 202.8,-127.6 201.98,-129.68 200.27,-132.85 199.55,-135.93 198.83,-139.01 197.11,-142.18 196.3,-144.26 195.58,-147.34 193.86,-150.51 193.14,-153.59 192.42,-156.67 191.7,-159.75 189.98,-162.92 189.26,-166 188.54,-169.07 187.82,-172.15 187.1,-175.23 185.38,-178.4 184.66,-181.48 183.94,-184.56 183.22,-187.64 182.5,-190.72 181.87,-194.79 181.15,-197.87 180.43,-200.95 178.71,-204.12 177.99,-207.2 177.27,-210.28 176.64,-214.35 175.83,-216.44 114.59,-500.23 74.14,-496.92 53.87,-494.77 32.69,-493.7 12.42,-491.55 -7.76,-490.39 -27.94,-489.23 -48.12,-488.07 -67.31,-486.83 -87.4,-486.66 -107.49,-486.5 -127.49,-487.34 -146.58,-487.08 -166.49,-488.91 -186.48,-489.75 -205.3,-492.48 -224.21,-494.22 -243.94,-498.04 -263.66,-501.86 -282.39,-505.59 -302.11,-509.41 -320.75,-514.14 -340.29,-519.95 -359.92,-524.77 -378.47,-530.49 -397.91,-537.3 -417.45,-543.11 -436.99,-548.92 -456.44,-555.73 -475.89,-562.54 -495.34,-569.35 -502.33,-547.9 -507.4,-547.36 -513.37,-547.91 -518.35,-548.37 -524.32,-548.91 -530.38,-548.47 -535.36,-548.93 -541.33,-549.47 -546.31,-549.93 -552.28,-550.48 -557.26,-550.94 -563.23,-551.49 -568.2,-551.94 -574.18,-552.49 -579.06,-553.95 -585.03,-554.49 -595.89,-556.5 -605.75,-558.41 -616.52,-561.41 -627.28,-564.4 -637.05,-567.31 -647.82,-570.31 -657.5,-574.21 -668.08,-579.2 -677.76,-583.1 -687.34,-588 -696.93,-592.9 -706.43,-598.79 -714.93,-604.59 -724.42,-610.49 -732.92,-616.29 -740.34,-623 -748.74,-629.8 -756.16,-636.5 -763.57,-643.21 -770.89,-650.91 -778.31,-657.62 -784.63,-665.23 -791.95,-672.93 -798.19,-681.54 -804.52,-689.15 -810.84,-696.76 -817.08,-705.37 -824.4,-713.07 -830.63,-721.68 -845.81,-742.15 -937.89,-614.04 -931.11,-600.36 -928.68,-594.11 -926.24,-587.86 -922.81,-581.52 -920.37,-575.28 -917.94,-569.03 -914.41,-563.68 -911.98,-557.43 -909.54,-551.18 -906.11,-544.84 -903.67,-538.59 -901.23,-532.34 -897.8,-526 -895.36,-519.75 -892.84,-514.5 -887.87,-503 -882.81,-492.49 -878.75,-482.07 -873.7,-471.57 -868.64,-461.06 -863.67,-449.56 -858.62,-439.05 -852.57,-428.45 -847.51,-417.95 -841.46,-407.35 -835.31,-397.74 -829.26,-387.15 -823.12,-377.54 -815.98,-367.85 -808.84,-358.16 -800.8,-347.37 -791.76,-336.5 -781.73,-325.54 -772.6,-315.66 -762.38,-306.69 -751.17,-297.62 -740.95,-288.65 -729.74,-279.59 -718.44,-271.52 -707.14,-263.45 -694.75,-256.28 -683.35,-249.21 -670.96,-242.05 -658.48,-235.88 -645.91,-230.71 -637.22,-226.9 -629.54,-223.18 -620.76,-220.36 -612.08,-216.55 -604.3,-213.83 -595.52,-211.01 -586.75,-208.2 -578.97,-205.48 -570.1,-203.66 -561.33,-200.84 -553.55,-198.12 -544.68,-196.3 -536.9,-193.57 -528.04,-191.76 -519.26,-188.94 -514.29,-188.48 -508.41,-186.94 -502.53,-185.39 -497.64,-183.94 -491.76,-182.4 -485.88,-180.85 -480,-179.31 -475.12,-177.85 -469.23,-176.31 -463.35,-174.76 -458.47,-173.31 -452.5,-172.76 -446.62,-171.22 -441.73,-169.76 -436.85,-168.31 -428.07,-165.5 -418.39,-161.59 -409.62,-158.78 -399.94,-154.88 -391.17,-152.06 -381.49,-148.16 -372.8,-144.35 -364.03,-141.53 -354.35,-137.63 -345.67,-133.82 -336.98,-130.01 -328.3,-126.2 -319.71,-121.39 -311.03,-117.58 -302.43,-112.78 -287.15,-104.34 -271.86,-95.91 -257.67,-86.57 -242.57,-76.14 -228.46,-65.81 -215.44,-54.57 -201.43,-43.24 -188.41,-32 -175.48,-19.77 -163.55,-7.62 -151.71,5.52 -139.87,18.66 -129.11,32.7 -118.36,46.74 -108.6,60.69 -100.65,72.47 -93.69,84.16 -85.83,96.93 -78.97,109.61 -73.1,122.2 -66.24,134.88 -60.37,147.47 -54.5,160.06 -48.72,173.65 -42.94,187.23 -38.07,199.73 -33.29,213.23 -27.51,226.81 -23.72,240.22 -19.03,254.7 -15.79,263.04 -12.63,272.37 -10.37,280.61 -7.22,289.93 -5.05,299.17 -1.81,307.5 0.36,316.74 2.52,325.98 5.77,334.31 7.93,343.55 10.09,352.78 12.25,362.02 14.51,370.26 16.67,379.5 19.83,388.83 22.62,402.14 25.5,414.45 28.29,427.76 31.18,440.08 33.97,453.39 36.85,465.71 38.65,478.93 41.44,492.24 44.32,504.55 46.12,517.77 48.91,531.08 50.71,544.3 53.59,556.62 55.38,569.84 57.18,583.06 59.34,592.3 60.51,601.44 61.68,610.59 62.84,619.73 65.01,628.97 66.17,638.11 67.43,646.26 68.6,655.41 69.76,664.55 70.93,673.7 73.09,682.93 74.26,692.08 75.43,701.22 76.6,710.37 80.72,741.88 ">
            </polygon>
        </g>
        <g transform="" id="C1_78_">
            <polygon
                style="stroke: none; stroke-width: 1; stroke-dasharray: none; stroke-linecap: butt; stroke-dashoffset: 0; stroke-linejoin: miter; stroke-miterlimit: 4; fill: rgb(35,180,196); fill-rule: nonzero; opacity: 1;"
                points="80.72,741.88 110.14,738.56 126.34,737.03 141.63,734.42 157.83,732.9 173.04,731.28 189.24,729.76 204.44,728.15 219.64,726.53 235.75,726 250.96,724.39 267.06,723.86 282.27,722.24 298.38,721.72 313.49,721.1 328.6,720.48 348.69,720.32 368.78,720.15 388.78,720.99 408.78,721.82 428.78,722.66 448.77,723.49 468.77,724.32 489.67,726.24 509.58,728.07 529.49,729.9 549.39,731.73 570.29,733.65 590.2,735.48 610.11,737.31 651.82,742.15 656.74,710.47 658.56,701.6 659.47,691.64 661.38,681.77 663.2,672.9 664.12,662.95 666.03,653.08 666.85,644.12 668.76,634.25 670.67,624.38 671.49,615.42 673.41,605.55 675.22,596.68 677.13,586.82 679.05,576.95 681.32,563.1 683.6,549.25 686.87,535.49 689.15,521.64 692.42,507.89 695.69,494.13 697.97,480.28 701.24,466.52 704.51,452.76 707.78,439 711.06,425.24 714.33,411.49 718.6,397.82 721.87,384.06 726.13,370.39 729.32,357.63 732.4,345.86 736.58,333.19 739.67,321.43 743.84,308.76 746.93,296.99 751.11,284.32 755.19,272.64 759.37,259.97 763.45,248.3 767.54,236.62 771.71,223.95 775.8,212.28 779.97,199.6 785.05,188.02 789.14,176.35 793.22,164.67 798.3,153.09 802.39,141.41 807.47,129.83 811.55,118.15 816.63,106.57 821.71,94.99 826.79,83.4 831.87,71.82 836.95,60.23 842.03,48.65 847.11,37.07 852.19,25.48 858.26,13.99 863.16,4.4 868.15,-6.19 873.13,-16.78 878.12,-27.36 883.11,-37.95 888.1,-48.54 893.09,-59.13 898.07,-69.72 902.07,-80.4 907.15,-91.98 911.14,-102.66 915.22,-114.33 919.22,-125.01 922.3,-136.78 925.39,-148.55 927.12,-156.42 928.94,-165.29 930.67,-173.17 932.49,-182.04 934.21,-189.91 934.95,-197.88 935.77,-206.84 936.5,-214.81 937.33,-223.77 937.06,-231.83 937.89,-240.79 937.63,-248.85 937.45,-257.9 937.19,-265.96 935.93,-274.11 934.86,-284.25 933.69,-293.4 932.52,-302.54 931.36,-311.69 929.19,-320.92 927.03,-330.16 924.87,-339.4 921.62,-347.73 919.46,-356.97 916.21,-365.3 913.05,-374.63 909.8,-382.96 906.64,-392.29 902.4,-400.71 899.15,-409.04 896.62,-414.3 894.09,-419.55 891.57,-424.8 888.04,-430.15 885.51,-435.4 882.89,-439.66 880.37,-444.91 876.84,-450.26 874.31,-455.51 870.7,-459.86 868.17,-465.11 864.55,-469.46 861.03,-474.81 857.42,-479.16 853.89,-484.5 849.37,-489.94 844.95,-496.37 840.43,-501.81 834.91,-507.33 830.39,-512.77 825.88,-518.21 820.36,-523.74 815.84,-529.17 810.33,-534.7 805.72,-539.14 800.2,-544.67 794.6,-549.2 790.08,-554.64 784.56,-560.16 759.61,-583.55 730.43,-539.03 716.38,-517.22 702.33,-495.42 687.29,-473.7 673.33,-452.89 659.28,-431.09 644.14,-408.38 630.19,-387.57 616.05,-364.77 602,-342.96 586.95,-321.25 572.9,-299.44 558.86,-277.64 544.81,-255.83 530.76,-234.03 527.32,-229.32 524.87,-224.53 521.42,-219.82 517.98,-215.12 515.53,-210.32 512.09,-205.61 508.64,-200.91 506.2,-196.11 502.75,-191.41 499.4,-187.7 496.95,-182.9 493.51,-178.2 490.07,-173.5 487.62,-168.7 484.17,-163.99 480.82,-160.29 477.38,-155.58 475.02,-151.78 471.58,-147.08 468.22,-143.37 465.78,-138.57 462.42,-134.86 459.07,-131.15 455.63,-126.45 452.28,-122.74 448.92,-119.03 445.48,-114.33 442.13,-110.62 438.78,-106.91 435.33,-102.21 431.98,-98.5 428.63,-94.79 425.28,-91.08 421.93,-87.37 417.58,-83.75 414.32,-81.04 410.97,-77.33 407.61,-73.62 403.36,-71 400.1,-68.29 395.84,-65.67 392.58,-62.95 388.32,-60.33 385.07,-57.62 380.9,-55.99 377.73,-54.28 374.56,-52.56 370.4,-50.93 367.23,-49.22 364.15,-48.5 359.99,-46.87 356.91,-46.15 352.84,-45.52 349.67,-43.8 345.6,-43.17 341.52,-42.54 337.45,-41.91 334.37,-41.19 330.3,-40.56 326.32,-40.93 323.24,-40.2 320.25,-40.48 317.27,-40.75 314.19,-40.03 311.2,-40.31 308.22,-40.58 305.14,-39.86 302.16,-40.13 299.17,-40.41 295.19,-40.78 292.2,-41.05 289.22,-41.32 286.23,-41.6 282.25,-41.97 283.24,-41.87 285.14,-40.69 282.25,-41.97 279.36,-43.24 277.46,-44.41 275.56,-45.59 272.66,-46.86 270.76,-48.04 267.87,-49.31 265.97,-50.49 264.07,-51.67 262.17,-52.85 259.28,-54.12 257.38,-55.3 255.48,-56.48 253.58,-57.65 251.68,-58.83 249.78,-60.01 247.97,-62.19 247.07,-63.27 245.17,-64.45 243.36,-66.63 241.46,-67.81 239.57,-68.99 237.76,-71.16 235.86,-72.34 235.05,-74.42 233.24,-76.6 231.34,-77.77 230.53,-79.86 228.72,-82.03 226.91,-84.21 225.11,-86.38 223.39,-89.55 221.58,-91.73 219.87,-94.9 218.06,-97.07 216.34,-100.24 214.63,-103.41 212.91,-106.58 211.1,-108.76 209.39,-111.93 208.66,-115.01 206.95,-118.18 205.23,-121.35 204.51,-124.43 202.8,-127.6 201.98,-129.68 200.27,-132.85 199.55,-135.93 198.83,-139.01 197.11,-142.18 196.3,-144.26 195.58,-147.34 193.86,-150.51 193.14,-153.59 192.42,-156.67 191.7,-159.75 189.98,-162.92 189.26,-166 188.54,-169.07 187.82,-172.15 187.1,-175.23 185.38,-178.4 184.66,-181.48 183.94,-184.56 183.22,-187.64 182.5,-190.72 181.87,-194.79 181.15,-197.87 180.43,-200.95 178.71,-204.12 177.99,-207.2 177.27,-210.28 176.64,-214.35 175.83,-216.44 114.59,-500.23 74.14,-496.92 53.87,-494.77 32.69,-493.7 12.42,-491.55 -7.76,-490.39 -27.94,-489.23 -48.12,-488.07 -67.31,-486.83 -87.4,-486.66 -107.49,-486.5 -127.49,-487.34 -146.58,-487.08 -166.49,-488.91 -186.48,-489.75 -205.3,-492.48 -224.21,-494.22 -243.94,-498.04 -263.66,-501.86 -282.39,-505.59 -302.11,-509.41 -320.75,-514.14 -340.29,-519.95 -359.92,-524.77 -378.47,-530.49 -397.91,-537.3 -417.45,-543.11 -436.99,-548.92 -456.44,-555.73 -475.89,-562.54 -495.34,-569.35 -502.33,-547.9 -507.4,-547.36 -513.37,-547.91 -518.35,-548.37 -524.32,-548.91 -530.38,-548.47 -535.36,-548.93 -541.33,-549.47 -546.31,-549.93 -552.28,-550.48 -557.26,-550.94 -563.23,-551.49 -568.2,-551.94 -574.18,-552.49 -579.06,-553.95 -585.03,-554.49 -595.89,-556.5 -605.75,-558.41 -616.52,-561.41 -627.28,-564.4 -637.05,-567.31 -647.82,-570.31 -657.5,-574.21 -668.08,-579.2 -677.76,-583.1 -687.34,-588 -696.93,-592.9 -706.43,-598.79 -714.93,-604.59 -724.42,-610.49 -732.92,-616.29 -740.34,-623 -748.74,-629.8 -756.16,-636.5 -763.57,-643.21 -770.89,-650.91 -778.31,-657.62 -784.63,-665.23 -791.95,-672.93 -798.19,-681.54 -804.52,-689.15 -810.84,-696.76 -817.08,-705.37 -824.4,-713.07 -830.63,-721.68 -845.81,-742.15 -937.89,-614.04 -931.11,-600.36 -928.68,-594.11 -926.24,-587.86 -922.81,-581.52 -920.37,-575.28 -917.94,-569.03 -914.41,-563.68 -911.98,-557.43 -909.54,-551.18 -906.11,-544.84 -903.67,-538.59 -901.23,-532.34 -897.8,-526 -895.36,-519.75 -892.84,-514.5 -887.87,-503 -882.81,-492.49 -878.75,-482.07 -873.7,-471.57 -868.64,-461.06 -863.67,-449.56 -858.62,-439.05 -852.57,-428.45 -847.51,-417.95 -841.46,-407.35 -835.31,-397.74 -829.26,-387.15 -823.12,-377.54 -815.98,-367.85 -808.84,-358.16 -800.8,-347.37 -791.76,-336.5 -781.73,-325.54 -772.6,-315.66 -762.38,-306.69 -751.17,-297.62 -740.95,-288.65 -729.74,-279.59 -718.44,-271.52 -707.14,-263.45 -694.75,-256.28 -683.35,-249.21 -670.96,-242.05 -658.48,-235.88 -645.91,-230.71 -637.22,-226.9 -629.54,-223.18 -620.76,-220.36 -612.08,-216.55 -604.3,-213.83 -595.52,-211.01 -586.75,-208.2 -578.97,-205.48 -570.1,-203.66 -561.33,-200.84 -553.55,-198.12 -544.68,-196.3 -536.9,-193.57 -528.04,-191.76 -519.26,-188.94 -514.29,-188.48 -508.41,-186.94 -502.53,-185.39 -497.64,-183.94 -491.76,-182.4 -485.88,-180.85 -480,-179.31 -475.12,-177.85 -469.23,-176.31 -463.35,-174.76 -458.47,-173.31 -452.5,-172.76 -446.62,-171.22 -441.73,-169.76 -436.85,-168.31 -428.07,-165.5 -418.39,-161.59 -409.62,-158.78 -399.94,-154.88 -391.17,-152.06 -381.49,-148.16 -372.8,-144.35 -364.03,-141.53 -354.35,-137.63 -345.67,-133.82 -336.98,-130.01 -328.3,-126.2 -319.71,-121.39 -311.03,-117.58 -302.43,-112.78 -287.15,-104.34 -271.86,-95.91 -257.67,-86.57 -242.57,-76.14 -228.46,-65.81 -215.44,-54.57 -201.43,-43.24 -188.41,-32 -175.48,-19.77 -163.55,-7.62 -151.71,5.52 -139.87,18.66 -129.11,32.7 -118.36,46.74 -108.6,60.69 -100.65,72.47 -93.69,84.16 -85.83,96.93 -78.97,109.61 -73.1,122.2 -66.24,134.88 -60.37,147.47 -54.5,160.06 -48.72,173.65 -42.94,187.23 -38.07,199.73 -33.29,213.23 -27.51,226.81 -23.72,240.22 -19.03,254.7 -15.79,263.04 -12.63,272.37 -10.37,280.61 -7.22,289.93 -5.05,299.17 -1.81,307.5 0.36,316.74 2.52,325.98 5.77,334.31 7.93,343.55 10.09,352.78 12.25,362.02 14.51,370.26 16.67,379.5 19.83,388.83 22.62,402.14 25.5,414.45 28.29,427.76 31.18,440.08 33.97,453.39 36.85,465.71 38.65,478.93 41.44,492.24 44.32,504.55 46.12,517.77 48.91,531.08 50.71,544.3 53.59,556.62 55.38,569.84 57.18,583.06 59.34,592.3 60.51,601.44 61.68,610.59 62.84,619.73 65.01,628.97 66.17,638.11 67.43,646.26 68.6,655.41 69.76,664.55 70.93,673.7 73.09,682.93 74.26,692.08 75.43,701.22 76.6,710.37 80.72,741.88 ">
            </polygon>
        </g>
        <g transform="" style="">
            <text xml:space="preserve" font-family="Times New Roman" font-size="16" font-style="normal"
                font-weight="normal"
                style="stroke: none; stroke-width: 1; stroke-dasharray: none; stroke-linecap: butt; stroke-dashoffset: 0; stroke-linejoin: miter; stroke-miterlimit: 4; fill: rgb(0,0,0); fill-rule: nonzero; opacity: 1; white-space: pre;"
                svgjs:data="{&quot;leading&quot;:&quot;1.3&quot;}">
                <tspan x="-72.66" y="5.03">Code:BR 5089, Size:L</tspan>
            </text>
        </g>
    </g>
</svg>